<?xml version="1.0" encoding="UTF-8" standalone="no"?>
<!-- Generator: Adobe Illustrator 22.0.1, SVG Export Plug-In . SVG Version: 6.00 Build 0)  -->

<svg
   version="1.0"
   id="Layer_1"
   x="0px"
   y="0px"
   viewBox="0 0 140.5 22.4"
   enable-background="new 0 0 140.5 22.4"
   xml:space="preserve"
   sodipodi:docname="ngh.svg"
   inkscape:version="1.1.2 (0a00cf5, 2022-02-04)"
   xmlns:inkscape="http://www.inkscape.org/namespaces/inkscape"
   xmlns:sodipodi="http://sodipodi.sourceforge.net/DTD/sodipodi-0.dtd"
   xmlns="http://www.w3.org/2000/svg"
   xmlns:svg="http://www.w3.org/2000/svg"><defs
   id="defs1026" /><sodipodi:namedview
   id="namedview1024"
   pagecolor="#ffffff"
   bordercolor="#666666"
   borderopacity="1.0"
   inkscape:pageshadow="2"
   inkscape:pageopacity="0.0"
   inkscape:pagecheckerboard="0"
   showgrid="false"
   inkscape:zoom="9.7864769"
   inkscape:cx="70.25"
   inkscape:cy="11.24"
   inkscape:window-width="1920"
   inkscape:window-height="1007"
   inkscape:window-x="0"
   inkscape:window-y="0"
   inkscape:window-maximized="1"
   inkscape:current-layer="Layer_1" />
<g
   id="g1021"
   style="fill:#ffffff;fill-opacity:1">
	<path
   fill="#B3B3B3"
   d="M31,19.4c0.1,0,0.3,0,0.4,0c0.4,0,0.8-0.1,1.1-0.1c0-0.5,0-1,0-1.5c0-0.1-0.2-0.2-0.3-0.3   c-0.1-0.1-0.1-0.2,0.1-0.2c0.2,0,0.5,0,0.8,0c0.2,0,0.2,0,0.1,0.3c0,0.1,0,0.3,0,0.4c0,1.1,0,2.1,0,3.2c0,0.2,0,0.4,0.1,0.5   c0.2,0.5,0.2,0.5-0.3,0.5c-0.2,0-0.4,0-0.5,0c-0.1,0-0.2-0.1-0.3-0.1c0.1,0,0.1-0.1,0.1-0.1c0.2-0.2,0.3-0.4,0.3-0.6   c0-0.2,0-0.4,0-0.5c0.1-1.1-0.1-1.3-1.5-1.1c-0.2,0-0.3,0.1-0.5,0.1c-0.3,0-0.8-0.1-1,0.1c-0.2,0.2-0.1,0.7-0.1,1   c0,0.4-0.1,0.9,0.5,1c0.1,0,0.1,0.1,0.1,0.1c-0.1,0-0.1,0.1-0.2,0.1c-0.3,0-0.6,0-1,0c-0.5,0-0.5,0-0.3-0.4   c0.1-0.1,0.1-0.3,0.1-0.5c0-1.1,0-2.3,0-3.4c0-0.2,0-0.4-0.3-0.4c0-0.1,0-0.2,0-0.2c0.4,0,0.8,0,1.2,0c0.2,0,0.2,0.1,0.1,0.2   c-0.6,0.5-0.2,1.2-0.3,1.8c0,0,0.2,0.1,0.3,0.1C30.2,19.4,30.6,19.4,31,19.4z"
   id="path941"
   style="fill:#ffffff;fill-opacity:1" />
	<path
   fill="#FFFFFF"
   d="M62.1,2.5c0,0.8,0,1.6,0,2.4c0,0.3,0.1,0.3,0.3,0.3c0.1,0,0.2,0.1,0.3,0.1c-0.1,0-0.1,0.1-0.2,0.1   c-0.2,0.1-0.5,0.1-0.8,0.2c-0.3,0.2-0.5-0.3-0.8-0.1c-0.2,0.1-0.6,0.1-0.8,0c-0.5-0.1-0.9-0.4-1-0.9c-0.3-1.3,0.4-2.2,1.6-2.3   c0.5,0,0.5,0,0.5-0.5c0-0.4,0.1-0.8-0.1-1.2c0,0,0-0.2,0.1-0.2c0.2-0.1,0.4-0.1,0.6-0.2C61.8,0.1,62-0.3,62,0.3   C62.1,1,62.1,1.8,62.1,2.5z M59.7,3.9c-0.2,0.4,0.2,0.7,0.5,1c0.2,0.2,0.4,0.3,0.6,0.2C61,5,61.2,4.9,61.2,4.6   c0-0.4-0.2-0.8,0.2-1.2c0.1-0.1-0.4-0.6-0.5-0.6C60,2.7,59.7,3.1,59.7,3.9z"
   id="path943"
   style="fill:#ffffff;fill-opacity:1" />
	<path
   fill="#FFFFFF"
   d="M108.9,14c-0.2,0-0.4,0-0.5,0c-0.1,0-0.1-0.1-0.2-0.2c0,0,0-0.2,0.1-0.2c0.3,0,0.4-0.2,0.4-0.5   c0-0.4,0-0.7,0-1.1c0.1-0.5-0.3-0.6-0.6-0.8c-0.1-0.1-0.4,0-0.6,0.1c-0.2,0.2-0.4,0.5-0.2,0.9c0.1,0.3,0,0.6,0,1   c0,0.1,0,0.2,0.1,0.3c0.2,0.4,0.2,0.4-0.2,0.5c-0.3,0-0.5-0.4-0.8,0c-0.1-0.1-0.3-0.2-0.4-0.3c0.1,0,0.2-0.1,0.2-0.1   c0.1-0.1,0.2-0.2,0.2-0.3c0-1.3,0-2.6,0-3.9c0-0.1,0-0.2-0.1-0.3c-0.3-0.2,0-0.3,0.1-0.4c0.2-0.1,0.4-0.1,0.6-0.1   c0.1,0,0.2,0.1,0.2,0.2c0,0.6,0,1.3,0,1.9c0,0.2,0.1,0.1,0.2,0.1c0.5-0.1,1-0.3,1.4,0.2c0.1,0.2,0.3,0.3,0.2,0.5c0,0.5,0,1,0,1.5   c0,0.1,0,0.3,0.1,0.4c0.2,0.5,0.2,0.5-0.3,0.5C109,14,108.9,14,108.9,14z"
   id="path945"
   style="fill:#ffffff;fill-opacity:1" />
	<path
   fill="#FFFFFF"
   d="M124.3,12.3c0,0.3,0.1,0.7-0.2,1c-0.4,0.4-0.8,0.7-1.4,0.7c-0.5,0-0.5,0-0.5,0.5c0,0.2,0,0.4,0,0.6   c0,0.1,0,0.2,0.1,0.3c0.2,0.1,0.5,0.1,0.3,0.4c-0.1,0.1-0.4,0.1-0.6,0.1c-0.3,0-0.6,0-0.8,0c0-0.1-0.6-0.3,0-0.4   c0.1,0,0.1-0.2,0.1-0.4c0-1.1,0-2.2,0-3.3c0-0.1,0-0.2,0-0.3c-0.1-0.2-0.4-0.4-0.1-0.5c0.2-0.1,0.7-0.3,0.8-0.2   c0.3,0.2,0.4,0.1,0.7,0c0.4-0.1,0.8,0.1,1.2,0.4C124.4,11.5,124.3,11.9,124.3,12.3z M122.2,12.4c0,0.3,0,0.6,0,0.9   c0,0.1,0.1,0.2,0.1,0.2c0.4,0,0.8,0.1,1.1-0.2c0.4-0.4,0.5-1.6,0-1.9c-0.2-0.1-0.4-0.5-0.7-0.2c-0.2,0.2-0.6,0.2-0.5,0.7   C122.2,12.1,122.2,12.3,122.2,12.4z"
   id="path947"
   style="fill:#ffffff;fill-opacity:1" />
	<path
   fill="#B3B3B3"
   d="M0.8,2.9c0-0.5,0-0.9,0-1.4c0-0.4,0-0.7-0.4-0.8c-0.1,0-0.1-0.1-0.2-0.2c0.1,0,0.2-0.1,0.3-0.1   C1.3,0.2,1.7,0.9,2,1.3C2.3,1.7,2.7,2.1,3,2.4c0.4,0.5,0.9,1,1.3,1.5C4.4,4,4.5,4,4.6,4c0,0,0.1-0.2,0.1-0.3c0-0.6,0-1.2,0-1.7   c0-0.6,0-1.1-0.5-1.4c-0.1,0-0.1-0.1-0.1-0.2c0.1,0,0.1-0.1,0.2-0.1c0.3,0,0.6,0,1,0c0.1,0,0.2,0,0.3,0.1C5.5,0.6,5.5,0.7,5.4,0.7   C5,1,4.9,1.3,4.9,1.8c0,1.1,0,2.2,0,3.3c0,0.1,0,0.1-0.1,0.2c-0.1,0-0.1,0-0.1-0.1c-0.5-0.6-1.2-1-1.5-1.7C3.1,3.4,3,3.3,2.9,3.2   c-0.5-0.5-1-1-1.5-1.5c0,0.7-0.1,1.4-0.1,2.1c0,0.3,0,0.6,0,0.9c0,0.4,0,0.6,0.5,0.5c0.1,0,0.1,0.1,0.2,0.1c0,0-0.1,0.1-0.1,0.1   c-0.4,0-0.8,0-1.2,0c-0.1,0-0.1-0.1-0.2-0.1c0.1,0,0.2-0.1,0.2-0.1C0.8,5,0.8,4.9,0.8,4.8C0.9,4.2,0.8,3.5,0.8,2.9z"
   id="path949"
   style="fill:#ffffff;fill-opacity:1" />
	<path
   fill="#FFFFFF"
   d="M83.2,18.2c0-0.2,0.1-0.5,0-0.6c-0.4-0.4-0.1-0.5,0.2-0.6c0.4-0.2,0.5-0.2,0.5,0.3c0,1.4,0,2.7,0,4.1   c0,0.4,0.1,0.5,0.5,0.5c0.1,0,0.2,0.1,0.2,0.2s-0.1,0.2-0.1,0.2c-0.3,0-0.6-0.1-0.9,0.2c0,0-0.2,0-0.2,0C83.2,22,83,22,82.8,22.2   c-0.5,0.4-0.9,0.1-1.3-0.1c-0.9-0.6-0.9-1.9-0.2-2.5c0.4-0.4,1.1-0.6,1.7-0.6c0.1,0,0.2-0.1,0.2-0.2C83.2,18.5,83.2,18.3,83.2,18.2   C83.2,18.2,83.2,18.2,83.2,18.2z M83.2,20.7c0-0.2,0-0.5,0-0.8c0-0.5-0.6-0.8-1.1-0.5c-0.5,0.2-0.3,0.8-0.7,1.1   c0.1,0.3,0.2,0.5,0.4,0.8c0,0.1,0.1,0.1,0.1,0.1c0.2,0.2,0.9,0.4,1.1,0.2c0.1-0.2,0.1-0.5,0.1-0.7C83.2,20.9,83.2,20.8,83.2,20.7z"
   id="path951"
   style="fill:#ffffff;fill-opacity:1" />
	<path
   fill="#FFFFFF"
   d="M19.8,2.3c0,0.6,0,1.2,0,1.8c0,0.3,0.1,0.6,0.2,0.9c0,0,0.1,0.1,0.2,0.1c0.1,0,0.1,0,0.2,0   c0,0.1-0.1,0.3-0.1,0.3c-0.4-0.1-0.9,0.6-1.3,0.1c0,0-0.2,0-0.3,0c-0.4,0.4-0.9,0.1-1.2-0.1c-0.4-0.2-0.7-0.6-0.8-1.1   c-0.2-0.9,0.6-1.8,1.4-1.9c0.2,0,0.4,0,0.6,0c0.1,0,0.3-0.2,0.3-0.2C19.1,1.6,19.4,1,19,0.5c0,0,0.1-0.2,0.2-0.3   c0.1-0.1,0.3,0,0.4-0.1c0.2-0.2,0.3-0.1,0.3,0.1C19.8,0.9,19.8,1.6,19.8,2.3z M19.2,3.9c0-0.3,0-0.6,0-0.9c0-0.2-0.1-0.3-0.3-0.3   c-0.1,0-0.3-0.1-0.4-0.2c-0.1,0.3-0.4,0.2-0.6,0.5c-0.2,0.5-0.2,1,0,1.5C17.9,4.8,17.9,5,18.3,5c0.9,0,0.9,0,0.9-0.9   C19.2,4,19.2,4,19.2,3.9z"
   id="path953"
   style="fill:#ffffff;fill-opacity:1" />
	<path
   fill="#FFFFFF"
   d="M62.7,19.3c0,0.7,0,1.4,0,2c0,0.3,0,0.5,0.4,0.5c0,0,0.1,0.1,0.1,0.2c0,0.1-0.1,0.2-0.2,0.2   c-0.2,0.1-0.5,0-0.7,0.1c-0.2,0.1-0.2-0.1-0.2-0.2c0,0-0.1-0.1-0.2-0.1c-0.1,0-0.1,0.1-0.1,0.1c-0.6,0-1.3,0.2-1.8-0.3   c-0.4-0.5-0.3-1.2-0.2-1.8c0-0.4,0.9-1,1.4-1.1c0.3,0,0.6,0,0.9-0.1c0-0.4,0-0.8,0-1.2c0-0.1-0.1-0.2-0.1-0.3   c-0.1-0.1-0.2-0.2-0.2-0.4c0.3-0.1,0.6-0.2,0.9-0.2c0,0,0.1,0.2,0.1,0.3C62.7,17.8,62.7,18.6,62.7,19.3z M62.1,20.7   c0-0.2,0.1-0.5,0-0.6c-0.1-0.2-0.2-0.5-0.4-0.6c-0.4-0.2-0.9,0-1.1,0.4c-0.2,0.5-0.4,1,0,1.5c0.2,0.3,0.8,0.6,1.1,0.5   c0.4-0.1,0.4-0.4,0.4-0.8C62,20.9,62.1,20.8,62.1,20.7z"
   id="path955"
   style="fill:#ffffff;fill-opacity:1" />
	<path
   fill="#B3B3B3"
   d="M49.9,8.8c0.2,0,0.4,0,0.5,0c0.7,0,0.9,0.2,0.8,0.9c0,0.1-0.1,0.1-0.1,0.2c0-0.1-0.1-0.1-0.1-0.2   c-0.5-0.7-1.4-0.9-2.1-0.6c-0.4,0.2-0.7,0.3-1,0.7c-0.7,1.1-0.3,2.8,0.9,3.5c0.6,0.3,1.2,0.1,1.8,0.2c0-0.4,0.1-0.8,0.1-1.1   c0-0.2,0.1-0.4-0.2-0.4c-0.1,0-0.1,0-0.2,0C50.1,12,50.1,12,50,12c0,0,0.1-0.1,0.1-0.1c0.5,0,0.9,0,1.4,0c0.3,0,0.2,0.2,0,0.2   c-0.4,0.3-0.4,0.9-0.2,1.1c0.2,0.4-0.1,0.5-0.2,0.5c-0.5-0.1-0.9,0.2-1.4,0.2c-0.4,0-0.8-0.3-1.3-0.2c-0.4-0.5-1.1-0.5-1.3-1.2   c-0.2-0.6-0.4-1-0.2-1.7c0.2-0.7,0.6-1.2,1.1-1.6c0.4-0.3,0.8-0.4,1.3-0.4C49.5,8.8,49.7,8.8,49.9,8.8z"
   id="path957"
   style="fill:#ffffff;fill-opacity:1" />
	<path
   fill="#FFFFFF"
   d="M15.5,20.7c0,0.2,0,0.5,0,0.8c0,0.1,0.1,0.3,0.1,0.3c0.2,0,0.3,0.1,0.3,0.3c0,0.1-0.2,0.1-0.4,0.1   c-0.2,0-0.5,0-0.8,0c-0.1,0-0.3,0-0.4-0.1c-0.1-0.2,0-0.3,0.3-0.3c0.1,0,0.2-0.2,0.1-0.3c-0.1-0.6,0.2-1.3-0.2-2   c-0.2-0.3,0.4-0.2,0.5-0.5c0.6,0.4,1.2-0.2,1.9,0c0.2,0,0.3,0.2,0.4,0.4c0.1,0.3,0.2,0.6,0.2,0.9c0,0.3,0,0.6,0,0.9   c0,0.3,0,0.6,0.3,0.8c0.2,0.1,0.1,0.2-0.1,0.2c-0.4,0-0.9,0-1.3,0c-0.1,0-0.2-0.1-0.2-0.1c0-0.1,0.1-0.3,0.1-0.3   c0.2,0,0.3,0,0.3-0.3c0-0.5,0-1,0-1.5c0-0.4-0.2-0.6-0.6-0.6c-0.4,0-0.7,0.3-0.7,0.6C15.5,20.2,15.5,20.4,15.5,20.7z"
   id="path959"
   style="fill:#ffffff;fill-opacity:1" />
	<path
   fill="#FFFFFF"
   d="M138.1,21.1c0,0.2,0,0.4,0,0.5c0,0.2,0,0.4,0.3,0.4c0,0,0.1,0.2,0.1,0.3c0,0.1-0.1,0.1-0.2,0.1   c-0.4,0-0.7,0-1.1,0c-0.1,0-0.1-0.1-0.2-0.2c0,0,0-0.2,0-0.2c0.4,0,0.4-0.3,0.4-0.6c-0.1-0.6,0.2-1.2-0.2-1.7c0,0,0-0.2,0.1-0.3   c0.2-0.1,0.6-0.3,0.7-0.2c0.4,0.2,0.7,0,1,0c0.8-0.1,1.1,0.3,1.2,1c0,0.4,0,0.9,0,1.3c0,0.1,0,0.3,0.1,0.4c0.2,0.5,0.2,0.5-0.2,0.5   c-0.2,0-0.4,0-0.6,0c-0.1,0-0.2-0.1-0.2-0.1c0-0.1,0-0.2,0.1-0.3c0.5-0.5,0.4-1,0.2-1.5c0-0.1,0.1-0.3,0-0.4   c-0.2-0.2-0.4-0.6-0.8-0.5c-0.3,0.1-0.7,0.5-0.7,0.9C138.1,20.7,138.1,20.9,138.1,21.1z"
   id="path961"
   style="fill:#ffffff;fill-opacity:1" />
	<path
   fill="#FFFFFF"
   d="M117,20.5c0,0.3,0,0.6,0,1c0,0.2,0.2,0.4,0.3,0.5s0.4,0,0.6-0.1c0.2-0.2,0.5-0.4,0.4-0.8c0-0.4,0-0.7,0-1.1   c0-0.1,0-0.2-0.1-0.3c-0.2-0.1-0.5-0.1-0.3-0.3c0.2-0.2,0.6-0.1,1-0.1c0,0,0.1,0.2,0.1,0.3c0,0.6,0,1.2,0,1.8   c0,0.2,0.1,0.4,0.2,0.5c0.2,0.2,0.1,0.1-0.1,0.3c-0.3,0.2-0.6,0.4-0.7,0.1c-0.1-0.5-0.2-0.2-0.4-0.1c-0.2,0.1-0.4,0.2-0.6,0.2   c-0.3,0-0.6,0-0.8-0.1c-0.2-0.2-0.3-0.6-0.4-0.9c0.5-0.3-0.1-0.6-0.1-0.9c0.1-0.3,0.2-0.7-0.2-1c0,0,0.1-0.3,0.2-0.3   c0.2,0,0.4,0,0.6,0c0.1,0,0.2,0.1,0.2,0.2C117,19.8,117,20.1,117,20.5z"
   id="path963"
   style="fill:#ffffff;fill-opacity:1" />
	<path
   fill="#FFFFFF"
   d="M54.1,4.1c0,0.2,0,0.5,0,0.8c0,0.2,0,0.3,0.3,0.3c0.1,0,0.1,0.2,0.1,0.3c-0.1,0-0.3,0.1-0.4,0   c-0.2-0.2-0.3-0.2-0.5,0c-0.2,0.2-0.3,0.1-0.4-0.1c-0.1-0.1-0.1-0.1-0.1-0.2c0.6-0.1,0.3-0.6,0.4-0.9c0-0.4,0-0.7,0-1.1   c0-0.3-0.3-0.5-0.6-0.4c-0.5,0.1-0.7,0.3-0.7,0.8c0,0.4,0,0.9,0,1.3c0,0.2,0.1,0.3,0.3,0.3c0,0,0.1,0.1,0,0.2   c-0.1,0.1-0.1,0.1-0.2,0.2c-0.3-0.5-0.6,0.1-0.9,0c-0.1,0-0.2-0.1-0.3-0.1c0.1-0.1,0.1-0.3,0.1-0.3c0.2,0,0.3-0.1,0.3-0.3   c0-0.5,0-1,0-1.5c0-0.1,0-0.2-0.1-0.3c-0.1-0.2-0.2-0.3-0.3-0.5c0.3-0.1,0.6-0.2,0.9-0.2c0,0,0.1,0,0.1,0.1c0.2,0.2,0.3,0.1,0.5,0   c0.4-0.2,0.9-0.2,1.2,0.2C54,2.9,54.1,3,54.1,3.2C54.1,3.5,54.1,3.8,54.1,4.1z"
   id="path965"
   style="fill:#ffffff;fill-opacity:1" />
	<path
   fill="#FFFFFF"
   d="M63.8,12.3c-0.1-0.3,0.1-0.6-0.1-1c-0.2-0.4,0.1-0.7,0.6-0.8c0.1,0,0.2,0,0.2,0.1c0,0.6,0.3,0.2,0.5,0.1   c0.2,0,0.4,0,0.6,0c0.6,0,0.8,0.2,0.8,0.9c0,0.4,0,0.8,0,1.2c0,0.1-0.1,0.3,0,0.4c0.1,0.2,0.3,0.3,0.4,0.5c-0.3,0-0.6,0.1-0.8,0.1   c-0.1,0-0.3,0-0.4,0s-0.3,0-0.1-0.2c0.6-0.6,0.2-1.4,0.3-2c0-0.2-0.3-0.4-0.6-0.4c-0.3,0-0.6,0.1-0.7,0.4c-0.1,0.6,0,1.1,0,1.7   c0,0.1,0.1,0.1,0.2,0.2c0.1,0.1,0.1,0.1,0.1,0.2c-0.1,0-0.2,0.1-0.3,0.1c-0.4,0-0.7,0-1.1,0c-0.1,0-0.2,0-0.3-0.1   c0.1,0,0.1-0.1,0.2-0.1c0.3-0.1,0.4-0.3,0.4-0.6C63.8,12.7,63.8,12.6,63.8,12.3z"
   id="path967"
   style="fill:#ffffff;fill-opacity:1" />
	<path
   fill="#FFFFFF"
   d="M39.6,22.2c-0.5,0.2-0.7-0.3-1.1-0.5c-0.3-0.3-0.4-0.6-0.4-1c0-1,0.7-1.6,1.8-1.7c0.5,0,0.7,0.3,1.1,0.6   c0.4,0.3,0.4,0.7,0.4,1.1C41.3,21.7,40.8,22.2,39.6,22.2z M39,20.5c0,0.2,0,0.5,0,0.7c0,0.2,0.1,0.4,0.3,0.5   c0.1,0.1,0.4,0.3,0.5,0.2c0.2-0.1,0.5-0.3,0.6-0.5c0.3-0.6,0.1-1.2,0-1.8c0-0.1-0.2-0.2-0.3-0.3c-0.8-0.2-1.1,0.1-1.1,0.9   C39,20.3,39,20.4,39,20.5z"
   id="path969"
   style="fill:#ffffff;fill-opacity:1" />
	<path
   fill="#FFFFFF"
   d="M47.2,22.2c-0.4,0.1-0.8-0.1-1.1-0.5c-0.2-0.2-0.3-0.4-0.3-0.6c0-0.2,0-0.5,0-0.8c0-0.6,0.6-1.2,1.3-1.4   c0.6-0.1,1.4,0.3,1.7,0.8C49.5,21,48.7,22.2,47.2,22.2z M48.2,20.4c0,0-0.1-0.3-0.2-0.6c-0.1-0.4-0.4-0.5-0.8-0.4   c-0.2,0-0.7,0.4-0.8,0.6c-0.1,0.7,0,1.4,0.6,1.9c0.2,0.1,0.3,0.1,0.4,0C48.2,21.6,48.3,21.2,48.2,20.4z"
   id="path971"
   style="fill:#ffffff;fill-opacity:1" />
	<path
   fill="#FFFFFF"
   d="M78.9,12c0.1-0.1,0.1-0.6,0.3-0.8c0.4-0.3,0.8-0.6,1.4-0.5c0.6,0,0.8,0.4,1.1,0.6c0.4,0.3,0.4,0.6,0.4,1   c0,0.8-0.9,1.6-1.7,1.6c-0.5,0-0.8-0.3-1.1-0.6C78.8,13.1,78.9,12.7,78.9,12z M81.2,12.3c0-0.2,0-0.4,0-0.5c0-0.2-0.6-0.9-0.8-0.8   c-0.2,0.1-0.5,0.3-0.7,0.5c-0.4,0.6-0.4,1.2,0.1,1.8c0.2,0.2,0.4,0.5,0.7,0.3c0.3-0.1,0.6-0.4,0.6-0.8   C81.2,12.6,81.2,12.5,81.2,12.3z"
   id="path973"
   style="fill:#ffffff;fill-opacity:1" />
	<path
   fill="#FFFFFF"
   d="M46.3,4c0,0.3,0,0.6,0,0.9c0,0.1,0.1,0.2,0.2,0.3c0.1,0.1,0.3,0.1,0.4,0.1c-0.1,0.1-0.2,0.2-0.4,0.2   c-0.1,0.1-0.3,0.2-0.4,0.1c-0.5-0.4-1,0.1-1.6,0c-0.2,0-0.4,0.1-0.5-0.2C44,5,43.9,4.7,44,4.4c0-0.1,0.2-0.1,0.3-0.1   c0.4-0.2,0.8-0.3,1.2-0.5c0.3-0.2,0.3-0.6,0-0.9c-0.2-0.2-0.4-0.2-0.6,0c-0.1,0.1-0.1,0.2-0.2,0.3c-0.1,0.1-0.2,0.2-0.3,0.2   c-0.1,0-0.2,0-0.3-0.1s-0.1-0.2,0-0.3c0.4-0.4,0.8-0.8,1.4-0.7c0.5,0,0.9,0.4,0.9,0.9C46.3,3.5,46.3,3.8,46.3,4z M45.1,4.2   c-0.2,0.2-0.4,0.3-0.5,0.5c0,0.1,0.2,0.3,0.4,0.4c0.2-0.2,0.4-0.4,0.7-0.6C45.5,4.5,45.3,4.4,45.1,4.2z"
   id="path975"
   style="fill:#ffffff;fill-opacity:1" />
	<path
   fill="#FFFFFF"
   d="M54.3,22.2c-0.2,0-0.4,0-0.6,0c-0.2,0-0.2-0.1,0-0.2c0.2-0.2,0.3-0.4,0.3-0.6c0-0.4,0-0.9,0-1.3   c0-0.2-0.1-0.4-0.2-0.5c-0.3-0.2-0.1-0.3,0.1-0.3c0.1,0,0.1-0.3,0.1-0.5c0.1-0.4,0.1-0.8,0.2-1.1c0.1-0.3,0.4-0.7,0.7-0.7   c0.4-0.1,0.9,0,1.4,0c0.1,0,0.1,0.2,0.2,0.3c-0.1,0.1-0.3,0.3-0.4,0.3c-0.2,0-0.4-0.1-0.5-0.2c-0.3-0.1-0.7,0-0.7,0.3   c0,0.2-0.1,0.5-0.1,0.7c-0.3,0.6,0,0.9,0.7,1c0.1,0,0.2,0.1,0.2,0.2c-0.1,0.1-0.2,0.1-0.3,0.2c-0.2-0.4-0.4,0.2-0.6,0   c0,0.2-0.1,0.4-0.1,0.6c0,0.4,0,0.8,0,1.2c0,0.1,0,0.2,0,0.3C54.8,22.2,54.8,22.2,54.3,22.2z"
   id="path977"
   style="fill:#ffffff;fill-opacity:1" />
	<path
   fill="#FFFFFF"
   d="M8.9,18.9c0.7,0,0.8,0.1,0.8,0.8c0,0.5,0,0.9,0,1.4c0,0.4-0.1,0.8,0.5,0.6c0,0,0.1,0.1,0.1,0.1   c-0.1,0-0.1,0.1-0.1,0.1c-0.3,0.3-0.6,0.2-0.9,0.1c-0.3-0.1-0.5-0.1-0.8,0C8.3,22.2,8,22.3,7.7,22c-0.5-0.5-0.5-0.8,0.2-1.1   c0.3-0.1,0.6-0.4,0.9-0.4c0.4,0,0.3-0.3,0.3-0.5c0.1-0.3-0.1-0.5-0.4-0.5c-0.2-0.1-0.5-0.1-0.5,0.3C8.2,19.8,8,20,7.9,20   c-0.1,0-0.3,0-0.5,0c0-0.1,0.1-0.3,0.1-0.4C8,19,8.2,18.9,8.9,18.9z M8.8,20.9c-0.5,0-0.7,0.4-0.6,0.7c0,0.1,0.2,0.2,0.3,0.2   c0.4,0,0.6-0.3,0.5-0.7C9,21,8.8,20.9,8.8,20.9z"
   id="path979"
   style="fill:#ffffff;fill-opacity:1" />
	<path
   fill="#FFFFFF"
   d="M90.9,20.7c0,0.2,0,0.4,0,0.5c-0.1,0.4,0.1,0.5,0.4,0.7c0.2,0.1,0.4,0.2-0.1,0.3c-0.3,0.1-0.4,0.3-0.7,0   c-0.1-0.1-0.3-0.2-0.4-0.2c-0.1,0-0.3,0.1-0.4,0.2c-0.2,0.2-0.4,0.1-0.6,0c-0.4-0.1-0.3-0.5-0.6-0.6c0,0,0-0.2,0.1-0.3   c0.3-0.3,0.6-0.6,1.1-0.7c0.5-0.1,0.7-0.6,0.4-1c-0.1-0.3-0.4-0.3-0.6-0.1c-0.2,0.2-0.4,0.5-0.7,0.7c0,0-0.2-0.1-0.2-0.1   c-0.1,0-0.1-0.2-0.1-0.2c0.3-0.3,0.5-0.7,1.1-0.7c0.8-0.1,1.2,0.1,1.2,0.8C90.9,20.2,90.9,20.4,90.9,20.7z M90.4,21.1   c-0.2-0.1-0.3-0.2-0.4-0.2c-0.1,0-0.2,0.2-0.3,0.2c-0.4,0-0.2,0.4-0.3,0.5c0.2,0,0.4,0.1,0.6,0C90.2,21.6,90.2,21.3,90.4,21.1z"
   id="path981"
   style="fill:#ffffff;fill-opacity:1" />
	<path
   fill="#FFFFFF"
   d="M74.4,12.2c-0.1,0.4,0.1,0.7-0.2,1.1c-0.3,0.4-0.9,0.4-1.2,0.7c-0.6-0.2-1.3-0.4-1.6-1.1   c-0.2-0.5-0.3-0.8,0-1.2c0.2-0.3,0.4-0.7,0.8-0.8c0.5-0.1,1-0.1,1.5,0c0.3,0.1,0.5,0.4,0.7,0.7C74.4,11.7,74.3,12,74.4,12.2z    M71.9,12.2c0.1,0.3,0.1,0.6,0.3,1c0.1,0.3,0.4,0.4,0.7,0.4c0.3,0,0.5-0.1,0.6-0.4c0.3-0.6,0.3-1.2-0.2-1.8s-0.9-0.5-1.2,0.1   C72,11.6,72,11.9,71.9,12.2z"
   id="path983"
   style="fill:#ffffff;fill-opacity:1" />
	<path
   fill="#FFFFFF"
   d="M116.4,14c-0.3-0.1-0.6-0.2-0.8-0.2c-0.2,0-0.4,0.2-0.7,0.2c-0.3,0-0.8-0.3-0.9-0.6   c-0.1-0.3,0.1-0.5,0.3-0.6c0.4-0.2,0.7-0.4,1.1-0.4c0.4,0,0.3-0.3,0.3-0.5c0-0.3-0.1-0.6-0.4-0.6c-0.1,0-0.4-0.1-0.4,0.2   c-0.1,0.3-0.2,0.5-0.6,0.5c-0.1,0-0.2,0-0.3-0.1c0-0.1,0-0.2,0.1-0.3c0.4-0.2,0.9-0.5,1.3-0.7s0.9,0.3,1,0.8c0,0.5,0,1,0,1.5   c0,0.4,0.1,0.5,0.5,0.5c0.1,0,0.1,0.1,0.2,0.1c0,0-0.1,0.1-0.1,0.1C116.7,13.9,116.5,14,116.4,14z M115.7,12.9c0,0-0.1-0.2-0.2-0.1   c-0.2,0-0.4,0.1-0.6,0.2c-0.1,0.1-0.2,0.2-0.4,0.2c0.1,0.1,0.2,0.3,0.4,0.4C115.3,13.7,115.7,13.3,115.7,12.9z"
   id="path985"
   style="fill:#ffffff;fill-opacity:1" />
	<path
   fill="#FFFFFF"
   d="M26.2,2.4c0.4-0.1,0.8,0,1.1,0.4c0.2,0.3,0.1,0.8-0.4,0.9c-0.5,0-1,0-1.5,0c-0.1,0-0.2,0.2-0.2,0.3   c0.2,0.3,0.4,0.8,0.8,0.9C26.2,5,26.7,5.1,27,4.7c0,0,0.1,0,0.2,0c0,0.1,0,0.2,0,0.2c-0.1,0.1-0.1,0.4-0.2,0.4   c-0.3,0.1-0.6,0.2-1,0.2c-0.6,0-1.1-0.5-1.3-1.1c-0.2-0.7-0.1-1.3,0.4-1.8C25.5,2.4,25.8,2.3,26.2,2.4z M26.1,3.2   c0.2,0,0.4,0,0.5,0c0,0,0.1-0.1,0.1-0.2s0-0.2,0-0.2c-0.2-0.2-0.9-0.1-1.1,0.1c0,0-0.1,0.1-0.1,0.2c0,0,0.1,0.1,0.1,0.1   C25.7,3.2,25.9,3.2,26.1,3.2z"
   id="path987"
   style="fill:#ffffff;fill-opacity:1" />
	<path
   fill="#FFFFFF"
   d="M130.2,21.1c0-0.4,0-0.6,0-0.9c0.1-0.5,0.5-1,1-1.1c0.4-0.1,1-0.2,1.4,0.2c0.2,0.2,0.3,0.5,0.2,0.8   c0,0.1-0.1,0.2-0.2,0.2c-0.4,0-0.8,0-1.2,0c-0.2,0-0.5,0-0.5,0.1c0,0.2-0.1,0.5,0,0.7c0.2,0.3,0.5,0.5,0.9,0.7   c0.2,0.1,0.5-0.2,0.7-0.2c0.1,0,0.1,0,0.2,0c0,0.1,0,0.2,0,0.3c-0.6,0.7-1.9,0.6-2.4-0.2C130.1,21.5,130.2,21.2,130.2,21.1z    M131.4,20c0.2,0,0.4,0,0.5,0c0.1,0,0.2-0.1,0.2-0.2c0-0.1,0-0.2-0.1-0.3c-0.1-0.1-0.3-0.2-0.4-0.2c-0.2,0.1-0.4,0.3-0.7,0.4   c0,0-0.1,0.1-0.1,0.1c0,0,0.1,0.1,0.1,0.1C131.1,20,131.2,20,131.4,20z"
   id="path989"
   style="fill:#ffffff;fill-opacity:1" />
	<path
   fill="#FFFFFF"
   d="M73.9,20.6c-0.2-0.8,0.4-1.2,1-1.5c0.5-0.3,1-0.2,1.4,0.2c0.3,0.2,0.1,0.5,0.1,0.8c0,0-0.2,0.1-0.3,0.1   c-0.4,0-0.9,0-1.3,0c-0.3,0-0.4,0.1-0.4,0.4c0,0.9,0.6,1.3,1.5,1.1c0.1,0,0.2-0.1,0.4-0.1c-0.1,0.1-0.1,0.3-0.2,0.4   c-0.6,0.5-2,0.2-2.3-0.5C73.8,21.2,73.9,20.9,73.9,20.6z M75.3,19.4c-0.1,0-0.3,0.1-0.5,0.2c-0.1,0-0.1,0-0.2,0c0,0,0,0.1,0,0.1   c0.2,0.1,0.4,0.2,0.6,0.2c0.2,0,0.3-0.1,0.5-0.2c0,0,0.1-0.1,0.1-0.2c0-0.1-0.1-0.2-0.2-0.2C75.6,19.4,75.5,19.4,75.3,19.4z"
   id="path991"
   style="fill:#ffffff;fill-opacity:1" />
	<path
   fill="#FFFFFF"
   d="M110.9,21.7c0.1,0,0.2-0.1,0.4-0.2c0.1,0,0.2,0,0.3,0.1c0,0.1,0,0.2-0.1,0.3c-0.3,0.2-0.6,0.3-0.9,0.5   c-0.6,0.2-1.5-0.3-1.6-0.9c0-0.3-0.4-0.4-0.2-0.7c0.3-0.4,0.2-1,0.7-1.3c0.5-0.4,1.7-0.2,2.1,0.3c0.1,0.2-0.1,0.5-0.3,0.6   c-0.5,0-0.9,0.1-1.4,0.1c-0.3,0-0.4,0.1-0.4,0.4C109.5,21.3,110.2,21.8,110.9,21.7z M110.2,20c0.2,0,0.4,0,0.5,0   c0.1,0,0.2-0.1,0.2-0.1c0-0.1,0-0.2-0.1-0.3c-0.4-0.4-0.9-0.3-1.1,0.3c0,0,0,0.1,0.1,0.1C109.9,20,110.1,20,110.2,20z"
   id="path993"
   style="fill:#ffffff;fill-opacity:1" />
	<path
   fill="#FFFFFF"
   d="M9.8,3.9c0.1-0.4,0.2-0.8,0.4-1.1c0.4-0.6,1.6-0.7,2.1-0.1c0.1,0.1,0.1,0.4,0.1,0.6c0,0.1-0.5,0.2-0.7,0.2   c-0.3,0-0.6-0.1-0.8-0.1c-0.4,0-0.5,0.1-0.4,0.6c0.1,0.4,0.7,0.9,1.1,0.9c0.1,0,0.3-0.1,0.4-0.1c0.2,0,0.2-0.4,0.4-0.2   c0,0-0.2,0.4-0.3,0.5c-0.6,0.6-1.1,0.6-1.7,0.1C10.1,4.9,9.7,4.5,9.8,3.9z M11.1,3.2c0.2,0,0.4,0,0.5,0c0.1,0,0.2-0.1,0.2-0.2   c0-0.2-0.4-0.5-0.6-0.4c-0.2,0.1-0.4,0.2-0.6,0.4c-0.1,0-0.1,0.1-0.1,0.2c0.1,0,0.1,0.1,0.2,0.1C10.9,3.2,11,3.2,11.1,3.2z"
   id="path995"
   style="fill:#ffffff;fill-opacity:1" />
	<path
   fill="#FFFFFF"
   d="M57.6,13.8c-0.6,0.1-1-0.2-1.3-0.8c-0.3-0.6-0.1-1.1,0.2-1.6c0.4-0.7,1.1-0.6,1.8-0.6   c0.2,0,0.5,0.4,0.6,0.6c0.1,0.2,0.1,0.4-0.3,0.4c-0.5,0-1.1,0-1.6,0c-0.3,0-0.3,0.2-0.2,0.4c0.2,1,0.8,1.3,1.8,1c0.1,0,0.2,0,0.3,0   c0,0.1-0.1,0.2-0.1,0.2C58.6,13.9,58.2,13.8,57.6,13.8z M57.6,11.6c0.2-0.1,0.4,0.2,0.5-0.2c0-0.1,0-0.4,0-0.4   C57.9,11,57.7,11,57.5,11c-0.2,0-0.5,0.4-0.4,0.5c0.1,0.1,0.3,0.1,0.4,0.2C57.6,11.6,57.6,11.6,57.6,11.6z"
   id="path997"
   style="fill:#ffffff;fill-opacity:1" />
	<path
   fill="#FFFFFF"
   d="M39.2,2.6c0,0.6,0,1.1,0,1.7c0,0.4-0.2,0.9,0.4,1c0,0,0,0.1,0,0.2c0,0-0.1,0.1-0.1,0.1   c-0.3-0.3-0.6-0.1-0.9-0.1c-0.1,0-0.4,0.1-0.4,0.1c-0.1-0.3,0-0.4,0.3-0.4c0,0,0.1-0.2,0.1-0.4c0-1.1,0-2.3,0-3.4   c0-0.3,0-0.5-0.3-0.6c-0.2-0.2-0.1-0.3,0-0.4c0.1-0.1,0.2-0.1,0.3-0.1C39.2,0,39.2,0,39.2,0.5C39.2,1.2,39.2,1.9,39.2,2.6z"
   id="path999"
   style="fill:#ffffff;fill-opacity:1" />
	<path
   fill="#FFFFFF"
   d="M0.7,18.9c0.1,0,0.3,0,0.4,0c0.1,0,0.2,0.2,0.2,0.3c-0.1,0.5,0,1,0.3,1.4c0.1,0.1,0.1,0.1,0.2,0.2   c0-0.1,0.1-0.2,0.1-0.3c0.1-0.3,0.3-0.6,0.4-0.9c0-0.1-0.1-0.2-0.1-0.4c-0.1-0.2-0.1-0.4,0.1-0.4c0.2,0,0.4,0,0.6,0   c0.2,0,0.3,0.2,0.2,0.4c-0.7,0.7-1,1.6-1.3,2.6c0,0.1-0.2,0.2-0.3,0.3c-0.1-0.1-0.2-0.3-0.3-0.4c-0.2-0.7-0.5-1.4-0.9-2.1   c-0.1-0.1-0.2-0.2-0.2-0.3c-0.1-0.1-0.1-0.2-0.2-0.3C0.1,19,0.2,19,0.2,19C0.4,18.9,0.5,18.9,0.7,18.9z"
   id="path1001"
   style="fill:#ffffff;fill-opacity:1" />
	<path
   fill="#FFFFFF"
   d="M101.2,10.8c0.1,0,0.3,0.1,0.6,0.2c0.1,0,0.1,0.2,0.2,0.4c-0.1,0-0.2,0.1-0.4,0.1c-0.3,0-0.5-0.2-0.8-0.2   c-0.6-0.1-1,0.3-1,0.9c0,0.4,0.1,0.8,0.4,1c0.4,0.2,0.9,0.5,1.4,0c0.1-0.1,0.2-0.1,0.3-0.1c0,0.2,0,0.4-0.1,0.5   c-0.8,0.7-2,0.5-2.5-0.3c-0.1-0.2-0.2-0.5-0.2-0.8c0-0.3,0.1-0.7,0.2-1c0.3-0.4,0.7-0.8,1.3-0.8C100.7,10.8,100.9,10.8,101.2,10.8z   "
   id="path1003"
   style="fill:#ffffff;fill-opacity:1" />
	<path
   fill="#FFFFFF"
   d="M94,10.8c0.6,0,0.9,0.2,0.8,0.7c0,0.1-0.1,0.2-0.1,0.2c-0.1,0-0.2,0-0.3,0c-0.1-0.1-0.1-0.3-0.3-0.4   c-0.2-0.1-0.4-0.4-0.6,0c-0.1,0.2-0.3,0.5,0.2,0.6c0.3,0.1,0.6,0.3,0.8,0.6c0.3,0.3,0.3,0.9,0.1,1.1c-0.3,0.4-0.8,0.5-1.2,0.4   c-0.5-0.1-0.8-0.4-0.8-0.8c0-0.1,0.1-0.2,0.1-0.3c0.1,0,0.2,0.1,0.3,0.1c0.1,0.1,0.2,0.4,0.3,0.4c0.2,0.1,0.6,0.1,0.8,0   c0.1-0.1,0.1-0.5-0.2-0.6c-0.2-0.1-0.4-0.2-0.6-0.4c-0.4-0.3-0.6-0.8-0.5-1.1C93,11,93.4,10.7,94,10.8C93.9,10.8,94,10.8,94,10.8z"
   id="path1005"
   style="fill:#ffffff;fill-opacity:1" />
	<path
   fill="#FFFFFF"
   d="M95.7,20.6c0.1-0.2,0.1-0.8,0.4-1c0.3-0.3,0.9-0.5,1.4-0.6c0.2,0,0.4,0.1,0.6,0.2c0.3,0.1,0.2,0.4,0.1,0.5   c-0.1,0.2-0.3,0.1-0.4,0c-0.5-0.4-0.6-0.4-1.1-0.1c-0.6,0.4-0.6,1.6,0.1,1.9c0.5,0.3,1,0.4,1.5-0.1c0,0,0.1,0,0.1,0   c0,0.1,0.1,0.2,0,0.2c-0.2,0.2-0.4,0.5-0.7,0.6c-0.4,0-0.6,0.4-1.1,0.1C96.1,21.9,95.7,21.5,95.7,20.6z"
   id="path1007"
   style="fill:#ffffff;fill-opacity:1" />
	<path
   fill="#FFFFFF"
   d="M67.9,5.6c-0.9,0-1-0.1-1.1-0.6c0-0.1,0-0.3,0.1-0.4c0.1,0.1,0.1,0.2,0.2,0.3c0.2,0.2,0.4,0.3,0.6,0.2   c0.1,0,0.3-0.1,0.3-0.1c0.1-0.1,0.1-0.3,0-0.4c-0.2-0.2-0.4-0.4-0.6-0.5C67.3,4,67,3.8,67,3.8c0.1-0.3-0.5-0.4-0.1-0.8   c0.2-0.3,0.4-0.6,0.8-0.6c0.2,0,0.5-0.1,0.6,0c0.2,0.1,0.4,0.3,0.3,0.6c0,0.1,0,0.1-0.1,0.2c-0.1,0-0.1,0-0.1-0.1   c-0.2-0.3-0.5-0.4-0.8-0.3c-0.1,0-0.2,0.1-0.2,0.1c0,0.1,0,0.2,0.1,0.3c0.3,0.2,0.5,0.4,0.8,0.6c0.5,0.3,0.5,1.3,0,1.6   C68.1,5.5,67.9,5.6,67.9,5.6z"
   id="path1009"
   style="fill:#ffffff;fill-opacity:1" />
	<path
   fill="#FFFFFF"
   d="M124.4,22.4c-0.1,0-0.3,0-0.4,0c-0.1,0-0.2,0-0.3-0.1c0-0.1,0.1-0.1,0.2-0.2c0.1-0.1,0.2-0.3,0.2-0.4   c-0.1-0.7,0.2-1.4-0.1-2.1c0,0,0-0.2,0.1-0.2c0.1-0.1,0.4-0.2,0.5-0.2c0.3,0.2,0.6,0.2,0.9,0c0.1-0.1,0.3,0,0.4,0   c0.1,0,0.2,0.2,0.2,0.3s-0.1,0.3-0.1,0.3c-0.1,0-0.2,0-0.3,0c-0.6,0-0.8,0.3-0.8,0.9c0,0.1,0,0.3,0,0.4c0,0.4,0,0.8,0.5,0.9   c0,0,0.1,0.2,0.1,0.2c0,0.1-0.1,0.2-0.2,0.2C124.9,22.4,124.7,22.4,124.4,22.4z"
   id="path1011"
   style="fill:#ffffff;fill-opacity:1" />
	<path
   fill="#FFFFFF"
   d="M87.4,10.4c0.1,0.1,0.1,0.4,0.2,0.4c0.2,0.1,0.5,0,0.7,0c0.1,0,0.2,0.1,0.2,0.2c0,0.1-0.1,0.2-0.1,0.2   c-0.3,0-0.8-0.1-0.8,0.1c-0.1,0.3-0.1,0.7-0.1,1c0,0.3,0,0.6,0.1,0.8c0.1,0.2,0.4,0.6,0.8,0.3c0,0,0.1,0.1,0.2,0.2c0,0,0,0.2,0,0.2   c-0.4,0.2-0.8,0.5-1.1,0.2c-0.3-0.2-0.6-0.5-0.5-0.9c0.1-0.5,0-1,0-1.5c0-0.2-0.1-0.3-0.3-0.3c0,0-0.1-0.1-0.1-0.1   C86.7,10.8,87.1,10.6,87.4,10.4z"
   id="path1013"
   style="fill:#ffffff;fill-opacity:1" />
	<path
   fill="#FFFFFF"
   d="M103,20.7c0-0.2,0-0.5,0-0.8c0-0.2-0.1-0.3-0.3-0.3c0,0-0.1-0.2-0.1-0.2c0.3-0.2,0.5-0.4,0.8-0.6   c0,0,0.1,0,0.1,0c0.1,0.7,0.6,0.2,0.9,0.3c0.1,0,0.2,0.1,0.2,0.2s-0.1,0.2-0.1,0.2c-0.3,0-0.8,0-0.8,0.1c-0.1,0.3-0.1,0.7-0.1,1   c0,0.1,0,0.2,0,0.3c0,0.6,0.1,0.7,0.9,0.8c0.1,0,0.2,0,0.2,0.1c0,0.1,0,0.3,0,0.3c-0.4,0.2-0.8,0.5-1.1,0.2c-0.3-0.2-0.6-0.5-0.5-1   C103,21.2,103,20.9,103,20.7z"
   id="path1015"
   style="fill:#ffffff;fill-opacity:1" />
	<path
   fill="#FFFFFF"
   d="M68.5,20.9c0,0.5-0.2,1,0.6,1.1c0,0,0.1,0,0.1,0.1c-0.1,0-0.1,0.1-0.1,0.1c-0.5,0-0.9,0-1.4,0   c-0.3,0-0.1-0.2,0-0.2c0.2-0.2,0.3-0.4,0.3-0.6c-0.1-0.6,0.2-1.3-0.2-1.9c0,0,0.1-0.3,0.2-0.3c0.2,0,0.5-0.5,0.6-0.1   c0.1,0.6,0.4,0.1,0.5,0.1c0.2,0,0.4-0.2,0.5-0.1c0.2,0.1,0.4,0.2,0.3,0.5c-0.1,0.2-0.2,0.4-0.6,0.3c-0.4-0.2-0.6,0-0.7,0.3   C68.5,20.3,68.5,20.6,68.5,20.9z"
   id="path1017"
   style="fill:#ffffff;fill-opacity:1" />
	<path
   fill="#FFFFFF"
   d="M32.4,5.4c-0.1,0-0.3,0-0.4,0c-0.1,0-0.2-0.1-0.3-0.1c0.1-0.1,0.2-0.1,0.3-0.2c0.1-0.1,0.1-0.2,0.1-0.3   c-0.1-0.6,0.3-1.4-0.2-2c0-0.1,0-0.2,0-0.2c0.1-0.3,0.6-0.4,0.9-0.2c0.1,0.1,0.2,0,0.4,0c0.2,0,0.3-0.2,0.5-0.1s0.3,0.2,0.4,0.3   c-0.1,0.1-0.2,0.3-0.4,0.3c-0.3,0.1-0.8,0-0.8,0.1c-0.1,0.3-0.1,0.7-0.1,1c0,0.2,0,0.5,0,0.8c0,0.1,0.1,0.2,0.2,0.3   c0.1,0.1,0.3,0.1,0.4,0.1c-0.1,0-0.3,0.1-0.4,0.1C32.8,5.4,32.6,5.4,32.4,5.4z"
   id="path1019"
   style="fill:#ffffff;fill-opacity:1" />
</g>
</svg>
