<?xml version="1.0" encoding="UTF-8" standalone="no"?>
<!-- Generator: Adobe Illustrator 22.0.1, SVG Export Plug-In . SVG Version: 6.00 Build 0)  -->

<svg
   version="1.0"
   id="Layer_1"
   x="0px"
   y="0px"
   viewBox="0 0 89.8 26.5"
   enable-background="new 0 0 89.8 26.5"
   xml:space="preserve"
   sodipodi:docname="njv.svg"
   inkscape:version="1.1.2 (0a00cf5, 2022-02-04)"
   xmlns:inkscape="http://www.inkscape.org/namespaces/inkscape"
   xmlns:sodipodi="http://sodipodi.sourceforge.net/DTD/sodipodi-0.dtd"
   xmlns="http://www.w3.org/2000/svg"
   xmlns:svg="http://www.w3.org/2000/svg"><defs
   id="defs401" /><sodipodi:namedview
   id="namedview399"
   pagecolor="#ffffff"
   bordercolor="#666666"
   borderopacity="1.0"
   inkscape:pageshadow="2"
   inkscape:pageopacity="0.0"
   inkscape:pagecheckerboard="0"
   showgrid="false"
   inkscape:zoom="6.8387777"
   inkscape:cx="58.124422"
   inkscape:cy="6.8725731"
   inkscape:window-width="1920"
   inkscape:window-height="1007"
   inkscape:window-x="1920"
   inkscape:window-y="0"
   inkscape:window-maximized="1"
   inkscape:current-layer="Layer_1" />
<g
   id="g396"
   style="fill:#ffffff;fill-opacity:1">
	<g
   id="g224"
   style="fill:#ffffff;fill-opacity:1">
		<polygon
   fill="#FFFFFF"
   points="11.5,4.3 11.5,6.1 13.2,6.1 13.2,16.9 4.3,4.3 0,4.3 0,6.1 1.8,6.1 1.8,20.4 0,20.4 0,22.2     6,22.2 6,20.4 4.2,20.4 4.2,9.6 13.1,22.1 15.7,22.1 15.7,6.1 17.5,6.1 17.5,4.3   "
   id="polygon222"
   style="fill:#ffffff;fill-opacity:1" />
	</g>
	<g
   id="g228"
   style="fill:#ffffff;fill-opacity:1">
		<polygon
   fill="#FFFFFF"
   points="26.4,22.1 19.7,6.1 18.7,6.1 18.7,4.3 25.6,4.3 25.6,6.1 23.8,6.1 28.2,16.8 32.5,6.1 30.7,6.1     30.7,4.3 35.6,4.3 35.6,6.1 34.5,6.1 28.1,22.1   "
   id="polygon226"
   style="fill:#ffffff;fill-opacity:1" />
	</g>
	<g
   id="g234"
   style="fill:#ffffff;fill-opacity:1">
		<g
   id="g232"
   style="fill:#ffffff;fill-opacity:1">
			<path
   fill="#FFFFFF"
   d="M33.7,22v-3h2.1v1.2c0.5,0.2,0.9,0.4,1.4,0.4c0.7,0,1.1-0.2,1.4-0.7c0.3-0.5,0.4-1.4,0.4-2.6V6.1h-2.1     V4.3h7.6v1.8h-1.8v10c0,2.3-0.5,3.9-1.3,4.9c-0.9,1-2.4,1.5-4.5,1.5C35.9,22.4,34.8,22.2,33.7,22"
   id="path230"
   style="fill:#ffffff;fill-opacity:1" />
		</g>
	</g>
	<g
   id="g238"
   style="fill:#ffffff;fill-opacity:1">
		<rect
   x="49.2"
   fill="#FFFFFF"
   width="1"
   height="13.2"
   id="rect236"
   style="fill:#ffffff;fill-opacity:1" />
	</g>
	<g
   id="g242"
   style="fill:#ffffff;fill-opacity:1">
		<rect
   x="49.2"
   y="13.2"
   fill="#B3B3B3"
   width="1"
   height="13.2"
   id="rect240"
   style="fill:#ffffff;fill-opacity:1" />
	</g>
	<g
   id="g394"
   style="fill:#ffffff;fill-opacity:1">
		<g
   id="g246"
   style="fill:#ffffff;fill-opacity:1">
			<polygon
   fill="#B3B3B3"
   points="59.1,7.6 58.7,7.6 57.3,5.4 57,4.8 57,4.8 57,5.3 57,7.6 56.6,7.6 56.6,4.3 57.1,4.3 58.4,6.5      58.8,7.1 58.8,7.1 58.8,6.6 58.8,4.3 59.1,4.3    "
   id="polygon244"
   style="fill:#ffffff;fill-opacity:1" />
		</g>
		<g
   id="g288"
   style="fill:#ffffff;fill-opacity:1">
			<g
   id="g250"
   style="fill:#ffffff;fill-opacity:1">
				<path
   fill="#B3B3B3"
   d="M60.3,6.1h1.5c-0.1-0.4-0.3-0.7-0.7-0.7C60.6,5.4,60.4,5.7,60.3,6.1 M62.1,6.5h-1.8      c0.1,0.5,0.3,0.8,0.8,0.8c0.3,0,0.6-0.1,0.7-0.4l0.3,0.2c-0.2,0.3-0.5,0.5-1,0.5c-0.7,0-1.2-0.5-1.2-1.3s0.4-1.3,1.1-1.3      c0.7,0,1.1,0.5,1.1,1.1C62.1,6.3,62.1,6.4,62.1,6.5"
   id="path248"
   style="fill:#ffffff;fill-opacity:1" />
			</g>
			<g
   id="g254"
   style="fill:#ffffff;fill-opacity:1">
				<path
   fill="#B3B3B3"
   d="M64.7,6.4L64.7,6.4c0-0.6-0.3-0.9-0.8-0.9c-0.5,0-0.8,0.4-0.8,0.9s0.3,0.9,0.8,0.9      C64.4,7.3,64.7,6.9,64.7,6.4 M65,4v3.5h-0.3l0-0.4c-0.1,0.3-0.4,0.5-0.8,0.5c-0.7,0-1.1-0.5-1.1-1.3s0.4-1.3,1.1-1.3      c0.4,0,0.7,0.2,0.8,0.4V4H65z"
   id="path252"
   style="fill:#ffffff;fill-opacity:1" />
			</g>
			<g
   id="g258"
   style="fill:#ffffff;fill-opacity:1">
				<path
   fill="#B3B3B3"
   d="M66.2,6.1h1.5c-0.1-0.4-0.3-0.7-0.7-0.7C66.5,5.4,66.2,5.7,66.2,6.1 M68,6.5h-1.8      C66.2,7,66.5,7.3,67,7.3c0.3,0,0.6-0.1,0.7-0.4L68,7.1c-0.2,0.3-0.5,0.5-1,0.5c-0.7,0-1.2-0.5-1.2-1.3s0.4-1.3,1.1-1.3      c0.7,0,1.1,0.5,1.1,1.1C68,6.3,68,6.4,68,6.5"
   id="path256"
   style="fill:#ffffff;fill-opacity:1" />
			</g>
			<g
   id="g262"
   style="fill:#ffffff;fill-opacity:1">
				<path
   fill="#B3B3B3"
   d="M70.2,5.1l-0.1,0.4c-0.1,0-0.2-0.1-0.3-0.1c-0.3,0-0.6,0.3-0.6,0.8v1.3h-0.4V5.1h0.3l0.1,0.4      c0.1-0.3,0.4-0.4,0.8-0.4C70,5.1,70.1,5.1,70.2,5.1"
   id="path260"
   style="fill:#ffffff;fill-opacity:1" />
			</g>
			<g
   id="g266"
   style="fill:#ffffff;fill-opacity:1">
				<path
   fill="#B3B3B3"
   d="M71.1,6.9c0,0.2,0.1,0.3,0.3,0.3c0.1,0,0.2,0,0.3-0.1l-0.1,0.4c-0.1,0-0.2,0.1-0.4,0.1      c-0.4,0-0.6-0.2-0.6-0.6V4h0.4V6.9z"
   id="path264"
   style="fill:#ffffff;fill-opacity:1" />
			</g>
			<g
   id="g270"
   style="fill:#ffffff;fill-opacity:1">
				<path
   fill="#B3B3B3"
   d="M73.6,6.7V6.4l-0.5,0.1c-0.4,0.1-0.6,0.2-0.6,0.4c0,0.2,0.2,0.3,0.4,0.3C73.3,7.3,73.6,7.1,73.6,6.7       M74.4,7.2l0,0.3c-0.1,0-0.2,0.1-0.3,0.1c-0.2,0-0.4-0.1-0.4-0.4c-0.2,0.2-0.5,0.4-0.8,0.4c-0.5,0-0.8-0.2-0.8-0.6      c0-0.4,0.3-0.7,0.9-0.8l0.6-0.1V5.9c0-0.3-0.2-0.5-0.6-0.5c-0.3,0-0.6,0.2-0.7,0.5l-0.3-0.2c0.1-0.4,0.5-0.6,1-0.6      c0.6,0,0.9,0.3,0.9,0.8v1.2c0,0.1,0.1,0.2,0.2,0.2C74.3,7.3,74.3,7.3,74.4,7.2"
   id="path268"
   style="fill:#ffffff;fill-opacity:1" />
			</g>
			<g
   id="g274"
   style="fill:#ffffff;fill-opacity:1">
				<path
   fill="#B3B3B3"
   d="M77.1,6v1.6h-0.4V6.1c0-0.5-0.3-0.7-0.6-0.7c-0.3,0-0.8,0.2-0.8,0.8v1.3H75V5.1h0.3l0,0.4      c0.2-0.3,0.5-0.4,0.8-0.4C76.7,5.1,77.1,5.4,77.1,6"
   id="path272"
   style="fill:#ffffff;fill-opacity:1" />
			</g>
			<g
   id="g278"
   style="fill:#ffffff;fill-opacity:1">
				<path
   fill="#B3B3B3"
   d="M79.7,6.4L79.7,6.4c0-0.6-0.3-0.9-0.8-0.9c-0.5,0-0.8,0.4-0.8,0.9s0.3,0.9,0.8,0.9      C79.4,7.3,79.7,6.9,79.7,6.4 M80.1,4v3.5h-0.3l0-0.4c-0.1,0.3-0.4,0.5-0.8,0.5c-0.7,0-1.1-0.5-1.1-1.3s0.4-1.3,1.1-1.3      c0.4,0,0.7,0.2,0.8,0.4V4H80.1z"
   id="path276"
   style="fill:#ffffff;fill-opacity:1" />
			</g>
			<g
   id="g282"
   style="fill:#ffffff;fill-opacity:1">
				<path
   fill="#B3B3B3"
   d="M80.8,7.1l0.3-0.2c0.1,0.3,0.4,0.4,0.8,0.4c0.4,0,0.6-0.2,0.6-0.4c0-0.2-0.2-0.3-0.6-0.4      c-0.7-0.1-0.9-0.3-0.9-0.7c0-0.4,0.4-0.7,0.9-0.7c0.5,0,0.8,0.2,1,0.6l-0.3,0.2c-0.1-0.3-0.3-0.4-0.6-0.4      c-0.3,0-0.6,0.2-0.6,0.3c0,0.2,0.2,0.3,0.7,0.4c0.7,0.1,0.9,0.3,0.9,0.7c0,0.4-0.4,0.7-1,0.7C81.4,7.6,81,7.4,80.8,7.1"
   id="path280"
   style="fill:#ffffff;fill-opacity:1" />
			</g>
			<g
   id="g286"
   style="fill:#ffffff;fill-opacity:1">
				<path
   fill="#B3B3B3"
   d="M83.8,6.1h1.5c-0.1-0.4-0.3-0.7-0.7-0.7C84.1,5.4,83.9,5.7,83.8,6.1 M85.6,6.5h-1.8      c0.1,0.5,0.3,0.8,0.8,0.8c0.3,0,0.6-0.1,0.7-0.4l0.3,0.2c-0.2,0.3-0.5,0.5-1,0.5c-0.7,0-1.2-0.5-1.2-1.3s0.4-1.3,1.1-1.3      c0.7,0,1.1,0.5,1.1,1.1C85.7,6.3,85.6,6.4,85.6,6.5"
   id="path284"
   style="fill:#ffffff;fill-opacity:1" />
			</g>
		</g>
		<g
   id="g292"
   style="fill:#ffffff;fill-opacity:1">
			<polygon
   fill="#B3B3B3"
   points="57.9,14.8 57.5,14.8 56.2,11.6 56.7,11.6 57.5,13.8 57.7,14.5 57.9,13.8 58.7,11.6 59.1,11.6         "
   id="polygon290"
   style="fill:#ffffff;fill-opacity:1" />
		</g>
		<g
   id="g330"
   style="fill:#ffffff;fill-opacity:1">
			<g
   id="g296"
   style="fill:#ffffff;fill-opacity:1">
				<path
   fill="#B3B3B3"
   d="M59.7,13.4h1.5c-0.1-0.4-0.3-0.7-0.7-0.7C60,12.7,59.8,13,59.7,13.4 M61.5,13.8h-1.8      c0.1,0.5,0.3,0.8,0.8,0.8c0.3,0,0.6-0.1,0.7-0.4l0.3,0.2c-0.2,0.3-0.5,0.5-1,0.5c-0.7,0-1.2-0.5-1.2-1.3c0-0.8,0.4-1.3,1.1-1.3      c0.7,0,1.1,0.5,1.1,1.1C61.5,13.6,61.5,13.7,61.5,13.8"
   id="path294"
   style="fill:#ffffff;fill-opacity:1" />
			</g>
			<g
   id="g300"
   style="fill:#ffffff;fill-opacity:1">
				<path
   fill="#B3B3B3"
   d="M63.7,12.4l-0.1,0.4c-0.1,0-0.2-0.1-0.3-0.1c-0.3,0-0.6,0.3-0.6,0.8v1.3h-0.4v-2.4h0.3l0.1,0.4      c0.1-0.3,0.4-0.4,0.8-0.4C63.5,12.3,63.6,12.4,63.7,12.4"
   id="path298"
   style="fill:#ffffff;fill-opacity:1" />
			</g>
			<g
   id="g304"
   style="fill:#ffffff;fill-opacity:1">
				<path
   fill="#B3B3B3"
   d="M64.4,13.4h1.5c-0.1-0.4-0.3-0.7-0.7-0.7C64.8,12.7,64.5,13,64.4,13.4 M66.2,13.8h-1.8      c0.1,0.5,0.3,0.8,0.8,0.8c0.3,0,0.6-0.1,0.7-0.4l0.3,0.2c-0.2,0.3-0.5,0.5-1,0.5c-0.7,0-1.2-0.5-1.2-1.3c0-0.8,0.4-1.3,1.1-1.3      c0.7,0,1.1,0.5,1.1,1.1C66.3,13.6,66.3,13.7,66.2,13.8"
   id="path302"
   style="fill:#ffffff;fill-opacity:1" />
			</g>
			<g
   id="g308"
   style="fill:#ffffff;fill-opacity:1">
				<path
   fill="#B3B3B3"
   d="M69.1,13.3v1.6h-0.4v-1.4c0-0.5-0.3-0.7-0.6-0.7c-0.3,0-0.8,0.2-0.8,0.8v1.3H67v-2.4h0.3l0,0.4      c0.2-0.3,0.5-0.4,0.8-0.4C68.7,12.3,69.1,12.6,69.1,13.3"
   id="path306"
   style="fill:#ffffff;fill-opacity:1" />
			</g>
			<g
   id="g312"
   style="fill:#ffffff;fill-opacity:1">
				<path
   fill="#B3B3B3"
   d="M70.4,14.8H70v-2.4h0.4V14.8z M69.9,11.6c0-0.2,0.1-0.3,0.3-0.3c0.2,0,0.3,0.1,0.3,0.3s-0.1,0.3-0.3,0.3      C70,11.9,69.9,11.8,69.9,11.6"
   id="path310"
   style="fill:#ffffff;fill-opacity:1" />
			</g>
			<g
   id="g316"
   style="fill:#ffffff;fill-opacity:1">
				<path
   fill="#B3B3B3"
   d="M71.6,13.2c0,0.3,0.3,0.5,0.6,0.5s0.6-0.2,0.6-0.5s-0.3-0.5-0.6-0.5S71.6,12.9,71.6,13.2 M73,15.1      c0-0.2-0.1-0.3-0.5-0.3h-0.7c-0.3,0-0.5,0.1-0.5,0.3c0,0.2,0.3,0.4,0.8,0.4C72.7,15.5,73,15.3,73,15.1 M73.4,15.1      c0,0.5-0.5,0.8-1.2,0.8c-0.8,0-1.1-0.3-1.1-0.6c0-0.2,0.2-0.4,0.4-0.5c-0.2-0.1-0.3-0.2-0.3-0.4c0-0.2,0.2-0.4,0.4-0.5      c-0.2-0.1-0.3-0.4-0.3-0.7c0-0.5,0.4-0.8,1-0.8c0.2,0,0.3,0,0.5,0.1c0.1-0.3,0.3-0.5,0.7-0.5l0.1,0.3c-0.3,0-0.5,0.1-0.6,0.3      c0.2,0.1,0.3,0.4,0.3,0.6c0,0.5-0.4,0.8-1,0.8c-0.1,0-0.3,0-0.4,0c-0.2,0-0.3,0.1-0.3,0.3s0.1,0.3,0.3,0.3h0.8      C73.1,14.5,73.4,14.7,73.4,15.1"
   id="path314"
   style="fill:#ffffff;fill-opacity:1" />
			</g>
			<g
   id="g320"
   style="fill:#ffffff;fill-opacity:1">
				<path
   fill="#B3B3B3"
   d="M74.4,14.8H74v-2.4h0.4V14.8z M73.9,11.6c0-0.2,0.1-0.3,0.3-0.3c0.2,0,0.3,0.1,0.3,0.3s-0.1,0.3-0.3,0.3      C74,11.9,73.9,11.8,73.9,11.6"
   id="path318"
   style="fill:#ffffff;fill-opacity:1" />
			</g>
			<g
   id="g324"
   style="fill:#ffffff;fill-opacity:1">
				<path
   fill="#B3B3B3"
   d="M77.4,13.3v1.6H77v-1.4c0-0.5-0.3-0.7-0.6-0.7c-0.3,0-0.8,0.2-0.8,0.8v1.3h-0.4v-2.4h0.3l0,0.4      c0.2-0.3,0.5-0.4,0.8-0.4C77,12.3,77.4,12.6,77.4,13.3"
   id="path322"
   style="fill:#ffffff;fill-opacity:1" />
			</g>
			<g
   id="g328"
   style="fill:#ffffff;fill-opacity:1">
				<path
   fill="#B3B3B3"
   d="M78.5,13.2c0,0.3,0.3,0.5,0.6,0.5c0.3,0,0.6-0.2,0.6-0.5s-0.3-0.5-0.6-0.5      C78.8,12.7,78.5,12.9,78.5,13.2 M80,15.1c0-0.2-0.1-0.3-0.5-0.3h-0.7c-0.3,0-0.5,0.1-0.5,0.3c0,0.2,0.3,0.4,0.8,0.4      C79.7,15.5,80,15.3,80,15.1 M80.3,15.1c0,0.5-0.5,0.8-1.2,0.8c-0.8,0-1.1-0.3-1.1-0.6c0-0.2,0.2-0.4,0.4-0.5      c-0.2-0.1-0.3-0.2-0.3-0.4c0-0.2,0.2-0.4,0.4-0.5c-0.2-0.1-0.3-0.4-0.3-0.7c0-0.5,0.4-0.8,1-0.8c0.2,0,0.3,0,0.5,0.1      c0.1-0.3,0.3-0.5,0.7-0.5l0.1,0.3c-0.3,0-0.5,0.1-0.6,0.3c0.2,0.1,0.3,0.4,0.3,0.6c0,0.5-0.4,0.8-1,0.8c-0.1,0-0.3,0-0.4,0      c-0.2,0-0.3,0.1-0.3,0.3c0,0.2,0.1,0.3,0.3,0.3h0.8C80.1,14.5,80.3,14.7,80.3,15.1"
   id="path326"
   style="fill:#ffffff;fill-opacity:1" />
			</g>
		</g>
		<g
   id="g334"
   style="fill:#ffffff;fill-opacity:1">
			<polygon
   fill="#B3B3B3"
   points="84.5,12.4 83.5,14.8 83.1,14.8 82.1,12.4 82.5,12.4 83.3,14.4 84.1,12.4    "
   id="polygon332"
   style="fill:#ffffff;fill-opacity:1" />
		</g>
		<g
   id="g392"
   style="fill:#ffffff;fill-opacity:1">
			<g
   id="g338"
   style="fill:#ffffff;fill-opacity:1">
				<path
   fill="#B3B3B3"
   d="M86.3,14v-0.3l-0.5,0.1c-0.4,0.1-0.7,0.2-0.7,0.4c0,0.2,0.2,0.3,0.4,0.3C86,14.5,86.3,14.3,86.3,14       M87.1,14.5l0,0.3c-0.1,0-0.2,0-0.3,0c-0.2,0-0.4-0.1-0.4-0.4c-0.2,0.2-0.5,0.4-0.8,0.4c-0.5,0-0.8-0.2-0.8-0.6      c0-0.4,0.3-0.6,0.9-0.8l0.6-0.1v-0.1c0-0.3-0.2-0.5-0.6-0.5c-0.3,0-0.6,0.2-0.7,0.5l-0.3-0.2c0.1-0.4,0.5-0.6,1-0.6      c0.6,0,0.9,0.3,0.9,0.8v1.2c0,0.1,0.1,0.2,0.2,0.2C87,14.5,87,14.5,87.1,14.5"
   id="path336"
   style="fill:#ffffff;fill-opacity:1" />
			</g>
			<g
   id="g342"
   style="fill:#ffffff;fill-opacity:1">
				<path
   fill="#B3B3B3"
   d="M89.8,13.3v1.6h-0.4v-1.4c0-0.5-0.3-0.7-0.6-0.7c-0.3,0-0.8,0.2-0.8,0.8v1.3h-0.4v-2.4H88l0,0.4      c0.2-0.3,0.5-0.4,0.8-0.4C89.3,12.3,89.8,12.6,89.8,13.3"
   id="path340"
   style="fill:#ffffff;fill-opacity:1" />
			</g>
			<g
   id="g346"
   style="fill:#ffffff;fill-opacity:1">
				<path
   fill="#B3B3B3"
   d="M58.4,21c0,0.7-0.4,1.1-1.1,1.1c-0.7,0-1.1-0.4-0.9-1.1l0.4-0.1c-0.1,0.5,0.1,0.8,0.6,0.8      c0.5,0,0.7-0.3,0.7-0.9v-2h0.4V21z"
   id="path344"
   style="fill:#ffffff;fill-opacity:1" />
			</g>
			<g
   id="g350"
   style="fill:#ffffff;fill-opacity:1">
				<path
   fill="#B3B3B3"
   d="M59.5,20.9c0,0.6,0.3,0.9,0.8,0.9c0.5,0,0.8-0.4,0.8-0.9s-0.3-0.9-0.8-0.9C59.8,20,59.5,20.3,59.5,20.9       M61.5,20.9c0,0.8-0.4,1.3-1.2,1.3c-0.7,0-1.2-0.5-1.2-1.3s0.4-1.3,1.2-1.3C61,19.6,61.5,20.1,61.5,20.9"
   id="path348"
   style="fill:#ffffff;fill-opacity:1" />
			</g>
			<g
   id="g354"
   style="fill:#ffffff;fill-opacity:1">
				<path
   fill="#B3B3B3"
   d="M64.3,19.7v2.4H64l0-0.4c-0.2,0.3-0.5,0.4-0.9,0.4c-0.5,0-0.9-0.2-0.9-0.9v-1.6h0.4v1.5      c0,0.5,0.2,0.6,0.6,0.6c0.4,0,0.8-0.2,0.8-0.8v-1.3H64.3z"
   id="path352"
   style="fill:#ffffff;fill-opacity:1" />
			</g>
			<g
   id="g358"
   style="fill:#ffffff;fill-opacity:1">
				<path
   fill="#B3B3B3"
   d="M66.6,19.7L66.5,20c-0.1,0-0.2-0.1-0.3-0.1c-0.3,0-0.6,0.3-0.6,0.8v1.3h-0.4v-2.4h0.3l0.1,0.4      c0.1-0.3,0.4-0.5,0.8-0.5C66.4,19.6,66.6,19.6,66.6,19.7"
   id="path356"
   style="fill:#ffffff;fill-opacity:1" />
			</g>
			<g
   id="g362"
   style="fill:#ffffff;fill-opacity:1">
				<path
   fill="#B3B3B3"
   d="M69.3,20.5v1.5h-0.4v-1.4c0-0.5-0.3-0.7-0.6-0.7c-0.3,0-0.8,0.2-0.8,0.8v1.3h-0.4v-2.4h0.3l0,0.4      c0.2-0.3,0.5-0.4,0.8-0.4C68.9,19.6,69.3,19.9,69.3,20.5"
   id="path360"
   style="fill:#ffffff;fill-opacity:1" />
			</g>
			<g
   id="g366"
   style="fill:#ffffff;fill-opacity:1">
				<path
   fill="#B3B3B3"
   d="M71.6,21.3V21l-0.5,0.1c-0.4,0.1-0.6,0.2-0.6,0.5c0,0.2,0.2,0.3,0.4,0.3C71.2,21.8,71.6,21.6,71.6,21.3       M72.4,21.8l0,0.3c-0.1,0-0.2,0-0.3,0c-0.2,0-0.4-0.1-0.4-0.4c-0.2,0.2-0.5,0.4-0.8,0.4c-0.5,0-0.8-0.2-0.8-0.6      c0-0.4,0.3-0.6,0.9-0.8l0.6-0.1v-0.1c0-0.3-0.2-0.5-0.6-0.5c-0.3,0-0.6,0.2-0.7,0.5l-0.3-0.2c0.1-0.4,0.5-0.6,1-0.6      c0.6,0,0.9,0.3,0.9,0.8v1.2c0,0.1,0.1,0.2,0.2,0.2C72.2,21.8,72.3,21.8,72.4,21.8"
   id="path364"
   style="fill:#ffffff;fill-opacity:1" />
			</g>
			<g
   id="g370"
   style="fill:#ffffff;fill-opacity:1">
				<path
   fill="#B3B3B3"
   d="M73.3,21.4c0,0.2,0.1,0.3,0.3,0.3c0.1,0,0.2,0,0.3-0.1l-0.1,0.4c-0.1,0-0.2,0.1-0.4,0.1      c-0.4,0-0.6-0.2-0.6-0.6v-2.9h0.4V21.4z"
   id="path368"
   style="fill:#ffffff;fill-opacity:1" />
			</g>
			<g
   id="g374"
   style="fill:#ffffff;fill-opacity:1">
				<path
   fill="#B3B3B3"
   d="M74.8,22.1h-0.4v-2.4h0.4V22.1z M74.3,18.9c0-0.2,0.1-0.3,0.3-0.3c0.2,0,0.3,0.1,0.3,0.3      c0,0.2-0.1,0.3-0.3,0.3C74.4,19.2,74.3,19.1,74.3,18.9"
   id="path372"
   style="fill:#ffffff;fill-opacity:1" />
			</g>
			<g
   id="g378"
   style="fill:#ffffff;fill-opacity:1">
				<path
   fill="#B3B3B3"
   d="M75.5,21.6l0.3-0.2c0.1,0.3,0.4,0.4,0.8,0.4c0.4,0,0.6-0.2,0.6-0.4c0-0.2-0.2-0.3-0.6-0.4      c-0.7-0.1-0.9-0.3-0.9-0.7c0-0.4,0.4-0.7,0.9-0.7c0.5,0,0.8,0.2,1,0.6l-0.3,0.2C77,20.1,76.8,20,76.5,20c-0.3,0-0.6,0.2-0.6,0.4      c0,0.2,0.2,0.3,0.7,0.4c0.7,0.1,0.9,0.3,0.9,0.7c0,0.4-0.4,0.7-1,0.7C76.1,22.1,75.7,22,75.5,21.6"
   id="path376"
   style="fill:#ffffff;fill-opacity:1" />
			</g>
			<g
   id="g382"
   style="fill:#ffffff;fill-opacity:1">
				<path
   fill="#B3B3B3"
   d="M79.7,21.9c-0.2,0.1-0.4,0.2-0.6,0.2c-0.4,0-0.7-0.2-0.7-0.6V20H78v-0.3h0.5v-0.6l0.4-0.1v0.7h0.9V20      h-0.9v1.4c0,0.2,0.2,0.4,0.4,0.4c0.2,0,0.3-0.1,0.4-0.2L79.7,21.9z"
   id="path380"
   style="fill:#ffffff;fill-opacity:1" />
			</g>
			<g
   id="g386"
   style="fill:#ffffff;fill-opacity:1">
				<path
   fill="#B3B3B3"
   d="M80.5,20.7H82c-0.1-0.4-0.3-0.7-0.7-0.7C80.9,20,80.6,20.2,80.5,20.7 M82.4,21h-1.8      c0.1,0.5,0.3,0.8,0.8,0.8c0.3,0,0.6-0.1,0.7-0.4l0.3,0.2c-0.2,0.3-0.5,0.5-1,0.5c-0.7,0-1.2-0.5-1.2-1.3c0-0.8,0.4-1.3,1.1-1.3      c0.7,0,1.1,0.5,1.1,1.1C82.4,20.9,82.4,21,82.4,21"
   id="path384"
   style="fill:#ffffff;fill-opacity:1" />
			</g>
			<g
   id="g390"
   style="fill:#ffffff;fill-opacity:1">
				<path
   fill="#B3B3B3"
   d="M85.2,20.5v1.5h-0.4v-1.4c0-0.5-0.3-0.7-0.6-0.7c-0.3,0-0.8,0.2-0.8,0.8v1.3h-0.4v-2.4h0.3l0,0.4      c0.2-0.3,0.5-0.4,0.8-0.4C84.8,19.6,85.2,19.9,85.2,20.5"
   id="path388"
   style="fill:#ffffff;fill-opacity:1" />
			</g>
		</g>
	</g>
</g>
</svg>
