<?xml version="1.0" encoding="UTF-8" standalone="no"?>
<!-- Generator: Adobe Illustrator 22.0.1, SVG Export Plug-In . SVG Version: 6.00 Build 0)  -->

<svg
   version="1.0"
   id="Layer_1"
   x="0px"
   y="0px"
   viewBox="0 0 74.9 21.8"
   enable-background="new 0 0 74.9 21.8"
   xml:space="preserve"
   sodipodi:docname="openbaar.svg"
   inkscape:version="1.1.2 (0a00cf5, 2022-02-04)"
   xmlns:inkscape="http://www.inkscape.org/namespaces/inkscape"
   xmlns:sodipodi="http://sodipodi.sourceforge.net/DTD/sodipodi-0.dtd"
   xmlns="http://www.w3.org/2000/svg"
   xmlns:svg="http://www.w3.org/2000/svg"><defs
   id="defs1552" /><sodipodi:namedview
   id="namedview1550"
   pagecolor="#ffffff"
   bordercolor="#666666"
   borderopacity="1.0"
   inkscape:pageshadow="2"
   inkscape:pageopacity="0.0"
   inkscape:pagecheckerboard="0"
   showgrid="false"
   inkscape:zoom="8.1375165"
   inkscape:cx="20.706563"
   inkscape:cy="23.225759"
   inkscape:window-width="1920"
   inkscape:window-height="1007"
   inkscape:window-x="1920"
   inkscape:window-y="0"
   inkscape:window-maximized="1"
   inkscape:current-layer="Layer_1" />
<g
   id="g1547"
   style="fill:#ffffff;fill-opacity:1">
	<g
   id="g1545"
   style="fill:#ffffff;fill-opacity:1">
		<path
   fill="#FFFFFF"
   d="M0.9,1.4v3.1C0.9,5.7,1.3,6,2.5,6h4.6c1.2,0,1.6-0.3,1.6-1.4V1.4C8.6,0.3,8.2,0,7.1,0H2.5    C1.3,0,0.9,0.3,0.9,1.4 M2.4,1.1h4.8v3.7H2.4V1.1z M15.9,1c0.4,0,0.7,0.1,0.7,0.5v0.6c0,0.4-0.2,0.5-0.7,0.5h-3.3V1    C12.5,1,15.9,1,15.9,1z M11.1,6h1.4V3.6h3.9c1,0,1.4-0.3,1.4-1.2V1.2c0-0.8-0.4-1.2-1.4-1.2h-5.4L11.1,6L11.1,6z M19.9,6h6.5V4.8    h-5V3.4h2.9v-1h-2.9V1.1h4.9V0h-6.4V6z M28.5,6h1.3v-4l5,4h1V0h-1.3v4l-5.1-4h-1V6z M43,3.4c0.5,0,0.7,0.1,0.7,0.5v0.4    c0,0.4-0.2,0.5-0.7,0.5h-3.2V3.4L43,3.4L43,3.4z M43,1c0.4,0,0.6,0.1,0.6,0.4v0.6c0,0.3-0.2,0.4-0.6,0.4h-3.2V1L43,1L43,1z     M38.3,6h4.9c1.2,0,1.8-0.4,1.8-1.2V4c0-0.6-0.4-1-1.1-1.1c0.6-0.1,1-0.5,1-1V1.2C45,0.3,44.6,0,43.6,0h-5.4L38.3,6L38.3,6z     M49.2,3.6l1.3-2.5l1.4,2.5H49.2z M46.4,6h1.4l0.8-1.3h3.9L53.3,6h1.6l-3.6-6h-1.4L46.4,6z M58.8,3.6l1.3-2.5l1.4,2.5H58.8z M56,6    h1.4l0.8-1.3h3.9L62.9,6h1.6l-3.6-6h-1.4L56,6z M65.9,6h1.4V3.7h1.4L71.2,6h2.1l-2.8-2.2h0.8c1,0,1.4-0.3,1.4-1.1V1.2    c0-0.8-0.4-1.2-1.4-1.2h-5.4V6z M70.7,1c0.4,0,0.7,0.1,0.7,0.5v0.7c0,0.4-0.2,0.5-0.7,0.5h-3.3V1C67.4,1,70.7,1,70.7,1z"
   id="path1539"
   style="fill:#ffffff;fill-opacity:1" />
		<path
   fill="#FFFFFF"
   d="M0,21.7h1.2v-4L3.9,21h0.3l2.7-3.4v4.1h1.4v-5.9H7l-2.9,3.5l-2.9-3.5H0L0,21.7L0,21.7z M10.8,21.7h0.7h0.7    v-3v-3h-0.7h-0.7v3V21.7z M10.8,21.7h1.4v-5.9h-1.4V21.7z M14.9,21.7h1.3v-4l5,4h1v-5.9h-1.3v4l-5.1-4h-1V21.7z M24.9,21.7h1.4    v-5.9h-1.4V21.7z M34.5,16.9v0.6l1.2-0.3v-0.1c0-1-0.5-1.3-1.6-1.3h-3.5c-1.2,0-1.6,0.3-1.6,1.4v0.7c0,1.1,0.4,1.4,1.6,1.4h3.9    v1.4h-4.4v-0.7l-1.3,0.2v0.2c0,1.1,0.4,1.4,1.6,1.4h3.9c1.2,0,1.6-0.3,1.6-1.4v-0.8c0-1.1-0.4-1.4-1.6-1.4h-3.9v-1.2L34.5,16.9    L34.5,16.9z"
   id="path1541"
   style="fill:#ffffff;fill-opacity:1" />
		<path
   fill="#FFFFFF"
   d="M41.9,16.9h2.9v-1.1h-7.2v1.1h2.9v4.9h1.4L41.9,16.9L41.9,16.9z M46.6,21.7h6.5v-1.1h-5v-1.5H51v-1h-2.9    v-1.3H53v-1.1h-6.4V21.7z M55.2,21.7h1.4v-2.2H58l2.5,2.2h2.1l-2.8-2.2h0.8c1,0,1.4-0.3,1.4-1.1v-1.4c0-0.8-0.4-1.2-1.4-1.2h-5.4    L55.2,21.7L55.2,21.7z M59.9,16.8c0.4,0,0.7,0.1,0.7,0.5V18c0,0.4-0.2,0.5-0.7,0.5h-3.3v-1.7C56.6,16.8,59.9,16.8,59.9,16.8z     M64.3,21.7h1.4v-5.9h-1.4V21.7z M68.4,21.7h6.5v-1.1h-5v-1.5h2.9v-1h-2.9v-1.3h4.9v-1.1h-6.4V21.7z"
   id="path1543"
   style="fill:#ffffff;fill-opacity:1" />
	</g>
</g>
</svg>
