<?xml version="1.0" encoding="UTF-8" standalone="no"?>
<!-- Generator: Adobe Illustrator 23.1.0, SVG Export Plug-In . SVG Version: 6.00 Build 0) -->

<svg
   id="Layer_1"
   x="0px"
   y="0px"
   viewBox="0 0 228.2 39.2"
   xml:space="preserve"
   version="1.1"
   sodipodi:docname="PersVeiligLogo.svg"
   width="228.2"
   height="39.200001"
   inkscape:version="1.1.2 (0a00cf5, 2022-02-04)"
   xmlns:inkscape="http://www.inkscape.org/namespaces/inkscape"
   xmlns:sodipodi="http://sodipodi.sourceforge.net/DTD/sodipodi-0.dtd"
   xmlns="http://www.w3.org/2000/svg"
   xmlns:svg="http://www.w3.org/2000/svg"><defs
   id="defs31" /><sodipodi:namedview
   id="namedview29"
   pagecolor="#ffffff"
   bordercolor="#666666"
   borderopacity="1.0"
   inkscape:pageshadow="2"
   inkscape:pageopacity="0.0"
   inkscape:pagecheckerboard="0"
   showgrid="false"
   inkscape:zoom="4.2998236"
   inkscape:cx="114.07445"
   inkscape:cy="23.0242"
   inkscape:window-width="1920"
   inkscape:window-height="1007"
   inkscape:window-x="0"
   inkscape:window-y="0"
   inkscape:window-maximized="1"
   inkscape:current-layer="g26" /> <style
   type="text/css"
   id="style2"> .st0{display:none;fill:#FFE501;} .st1{fill:#FFFFFF;} </style>  <g
   id="g26"
   transform="translate(-27.6,-33.7)">          <path
   d="m 27.6,42.2 h 11 c 1.5,0 3.1,0.2 4.6,0.5 1.3,0.3 2.6,0.8 3.7,1.6 1.1,0.8 1.9,1.8 2.5,3 0.7,1.4 1,3 0.9,4.6 0,1.6 -0.3,3.1 -0.9,4.6 -0.6,1.2 -1.5,2.3 -2.6,3.2 -1.1,0.8 -2.4,1.5 -3.7,1.8 -1.5,0.4 -3,0.6 -4.5,0.6 h -4.2 v 10.2 h -6.8 z m 10.6,14.5 c 3.7,0 5.5,-1.6 5.5,-4.8 0.1,-1.3 -0.4,-2.5 -1.4,-3.3 -1.2,-0.7 -2.7,-1.1 -4.1,-1 h -3.8 v 9.1 z"
   id="path6"
   style="fill:#ffffff" /><path
   d="M 54.5,42.2 H 73.3 V 48 h -12 v 6 h 10.2 v 5.7 H 61.3 v 6.9 h 12.5 v 5.7 H 54.5 Z"
   id="path8"
   style="fill:#ffffff" /><path
   d="M 95.5,72.3 89.7,61.5 H 86 V 72.3 H 79.2 V 42.2 H 90 c 1.5,0 3,0.1 4.5,0.5 1.3,0.3 2.6,0.8 3.7,1.5 1.1,0.7 1.9,1.7 2.5,2.9 0.7,1.4 1,2.9 0.9,4.5 0.1,1.9 -0.4,3.8 -1.5,5.5 -1,1.4 -2.3,2.5 -3.9,3.2 l 6.8,12 H 95.5 Z M 86,56.1 h 3.5 c 1.4,0.1 2.9,-0.3 4.1,-1.1 1,-0.8 1.5,-2.1 1.4,-3.3 0.1,-1.2 -0.4,-2.4 -1.4,-3.1 -1.3,-0.7 -2.7,-1 -4.1,-0.9 H 86 Z"
   id="path10"
   style="fill:#ffffff" /><path
   d="m 109,63.9 c 1.1,0.9 2.3,1.7 3.6,2.3 1.2,0.6 2.5,0.9 3.9,0.9 1.1,0.1 2.2,-0.2 3.2,-0.8 0.7,-0.5 1.1,-1.3 1,-2.1 0,-0.4 -0.1,-0.8 -0.3,-1.2 -0.2,-0.4 -0.5,-0.7 -0.9,-0.9 -0.4,-0.3 -0.9,-0.5 -1.4,-0.7 l -1.8,-0.8 -3.9,-1.7 c -0.8,-0.3 -1.5,-0.7 -2.2,-1.2 -0.7,-0.5 -1.4,-1.1 -1.9,-1.7 -0.6,-0.7 -1,-1.5 -1.4,-2.3 -0.4,-1 -0.5,-2 -0.5,-3 0,-1.2 0.3,-2.4 0.8,-3.5 0.5,-1.1 1.3,-2.1 2.2,-2.9 1,-0.8 2.2,-1.5 3.4,-1.9 1.4,-0.5 2.8,-0.7 4.3,-0.7 1.8,0 3.5,0.3 5.2,1 1.7,0.7 3.2,1.7 4.5,3 l -3.5,4.3 c -0.9,-0.7 -1.9,-1.3 -3,-1.8 -1,-0.4 -2.2,-0.6 -3.3,-0.6 -1,-0.1 -2,0.2 -2.8,0.7 -0.7,0.4 -1.1,1.2 -1,2 0,0.4 0.1,0.8 0.3,1.2 0.3,0.4 0.6,0.7 1,0.9 0.5,0.3 0.9,0.5 1.5,0.7 0.6,0.2 1.2,0.5 1.8,0.8 l 3.9,1.6 c 1.7,0.6 3.2,1.7 4.4,3 1.1,1.5 1.7,3.3 1.6,5.1 0,2.5 -1.1,4.9 -3,6.5 -1.1,0.9 -2.3,1.6 -3.6,2 -1.5,0.5 -3.2,0.8 -4.8,0.8 -2,0 -4,-0.4 -5.9,-1.1 -1.9,-0.7 -3.7,-1.8 -5.2,-3.3 z"
   id="path12"
   style="fill:#ffffff" /><path
   class="st1"
   d="m 129,42.2 h 7.2 c 0,0 5.6,20.7 6,22.4 h 0.2 c 0.4,-1.7 7.6,-30.9 7.6,-30.9 h 6.9 L 146.2,72.4 H 138 Z"
   id="path14"
   style="fill:#ffdc00;fill-opacity:1" /><path
   class="st1"
   d="m 158.6,42.2 h 18.8 V 48 h -12 v 6 h 10.2 v 5.7 h -10.2 v 6.9 h 12.5 v 5.7 h -19.3 z"
   id="path16"
   style="fill:#ffdc00;fill-opacity:1" /><path
   class="st1"
   d="m 183.3,42.2 h 6.8 v 30.1 h -6.8 z"
   id="path18"
   style="fill:#ffdc00;fill-opacity:1" /><path
   class="st1"
   d="m 196.5,42.2 h 6.8 v 24.4 h 11.9 v 5.7 h -18.7 z"
   id="path20"
   style="fill:#ffdc00;fill-opacity:1" /><path
   class="st1"
   d="m 219.4,42.2 h 6.8 v 30.1 h -6.8 z"
   id="path22"
   style="fill:#ffdc00;fill-opacity:1" /><path
   class="st1"
   d="m 231.2,57.5 c 0,-2.3 0.4,-4.5 1.2,-6.7 0.7,-1.8 1.8,-3.5 3.2,-5 1.3,-1.3 2.9,-2.4 4.7,-3.1 1.8,-0.7 3.8,-1.1 5.7,-1.1 1.9,0 3.8,0.4 5.5,1.2 1.4,0.7 2.7,1.6 3.8,2.7 l -3.7,4.2 c -0.7,-0.7 -1.5,-1.2 -2.3,-1.7 -1,-0.4 -2.1,-0.6 -3.2,-0.6 -1.1,0 -2.2,0.2 -3.2,0.7 -1,0.4 -1.8,1.1 -2.5,1.9 -0.7,0.9 -1.3,1.9 -1.6,3 -0.4,1.3 -0.6,2.7 -0.6,4.1 0,3.1 0.7,5.5 2.1,7.2 1.4,1.7 3.5,2.6 6.3,2.6 0.6,0 1.2,-0.1 1.8,-0.2 0.5,-0.1 1,-0.4 1.4,-0.7 v -5.2 h -5 v -5.5 h 11 v 13.8 c -1.2,1.1 -2.7,2 -4.2,2.6 -1.9,0.7 -3.8,1.1 -5.8,1.1 -1.9,0 -3.9,-0.3 -5.7,-1 -1.7,-0.6 -3.3,-1.6 -4.6,-2.9 -1.4,-1.4 -2.4,-3 -3.1,-4.8 -0.9,-2.1 -1.2,-4.4 -1.2,-6.6 z"
   id="path24"
   style="fill:#ffdc00;fill-opacity:1" /> </g> </svg>
