<?xml version="1.0" encoding="UTF-8" standalone="no"?>
<!-- Generator: Adobe Illustrator 22.0.1, SVG Export Plug-In . SVG Version: 6.00 Build 0)  -->

<svg
   version="1.0"
   id="Layer_1"
   x="0px"
   y="0px"
   viewBox="0 0 82.1 29.6"
   enable-background="new 0 0 82.1 29.6"
   xml:space="preserve"
   sodipodi:docname="politie.svg"
   inkscape:version="1.1.2 (0a00cf5, 2022-02-04)"
   xmlns:inkscape="http://www.inkscape.org/namespaces/inkscape"
   xmlns:sodipodi="http://sodipodi.sourceforge.net/DTD/sodipodi-0.dtd"
   xmlns="http://www.w3.org/2000/svg"
   xmlns:svg="http://www.w3.org/2000/svg"><defs
   id="defs1723">
	
	
	
	
	
	
	
	
</defs><sodipodi:namedview
   id="namedview1721"
   pagecolor="#ffffff"
   bordercolor="#666666"
   borderopacity="1.0"
   inkscape:pageshadow="2"
   inkscape:pageopacity="0.0"
   inkscape:pagecheckerboard="0"
   showgrid="false"
   inkscape:zoom="3.7119367"
   inkscape:cx="-9.2943394"
   inkscape:cy="-27.748318"
   inkscape:window-width="1920"
   inkscape:window-height="1007"
   inkscape:window-x="1920"
   inkscape:window-y="0"
   inkscape:window-maximized="1"
   inkscape:current-layer="Layer_1" />
<path
   fill="#FFFFFF"
   d="M 25.2,23.6 C 25.2,22 24.8,21 23.9,19.9 l -2.2,1.9 c 0.5,0.6 0.6,1 0.6,1.8 0,1.8 -1.4,3.2 -3.1,3.2 -1.7,0 -3.1,-1.4 -3.1,-3.2 0,-0.3 0.1,-0.7 0.1,-1 l -2.3,-1.9 c -0.4,0.6 -0.7,1.2 -0.7,2.9 -0.1,3.3 2.7,6.1 6.1,6.1 3.2,-0.1 5.9,-2.8 5.9,-6.1 z"
   id="path1702"
   style="fill:#ffffff;fill-opacity:1" /><path
   fill="#ffffff"
   d="M 28.3,16.2 V 15 l -9.1,7.6 v -1.2 l 9.1,-7.6 v -1.1 l -5,-3.3 c 0.1,0.4 0.2,1.2 -0.3,2.2 -0.6,1.3 -2.1,2.3 -2.6,2.6 -0.6,0.4 -0.9,0.7 -1,1 0,0.2 -0.1,0.4 -0.1,0.7 0.5,0.1 1.1,0.6 1.1,1.3 0,0.8 -0.6,1.4 -1.4,1.4 -0.8,0 -1.4,-0.6 -1.4,-1.4 0,-0.6 0.4,-1.2 1.1,-1.4 -0.2,-0.6 -0.3,-0.8 -0.3,-1.5 0,-1.4 1.5,-2.6 1.5,-2.6 C 21,10.8 21.6,10 21.8,9.1 21.9,8.3 21.6,7.3 21.6,7.3 22,7.4 22.1,7.6 22.4,7.8 22.6,8 22.8,8.3 22.8,8.3 23,7.6 23,7.1 22.8,6.6 22.7,6.1 22.5,5.6 21.9,5.1 21.3,4.6 20.8,4.5 20.8,4.5 21,4.9 21.1,5.2 21.1,6 21,6.8 20.8,7.2 20.3,8 c -0.5,0.7 -1.5,1.5 -2.1,2.3 -0.5,0.8 -0.8,1.4 -0.8,2 0,0.9 0.3,1.9 0.3,1.9 -0.4,-0.2 -0.8,-0.6 -1,-1.1 -0.3,-0.6 -0.5,-1.1 -0.5,-2 0,-0.8 0.3,-2 1,-2.9 0.5,-0.6 1.6,-1.7 2,-2.6 0.4,-0.9 0.4,-1.3 0.4,-1.7 0,-0.4 -0.3,-0.9 -0.3,-0.9 0.2,0 0.6,0.3 0.7,0.3 0.2,0.2 0.3,0.3 0.3,0.3 0,-0.3 0.1,-0.7 0,-1.3 C 20.1,1.4 19.7,0.9 19.1,0.4 18.4,0 17.8,0 17.8,0 c 0.3,0.3 0.4,0.7 0.5,1.2 0.1,0.5 0.1,1.1 -0.2,1.7 -0.3,0.7 -1.2,1.4 -1.8,2 -0.6,0.6 -1.2,1.3 -1.7,2.2 -0.5,1.1 -0.6,1.9 -0.4,3 0.2,1.3 0.9,2.1 0.9,2.1 -0.5,-0.2 -1,-0.5 -1.2,-0.8 -0.3,-0.3 -0.5,-0.7 -0.6,-1 L 10,12.7 v 3.5 l 9.1,7.7 2.6,-2.2 2.2,-1.9 z"
   id="path1704"
   style="fill:#ffffff;fill-opacity:1" /><polygon
   fill="#FFFFFF"
   points="81.8,18.9 81.8,16.8 77.8,16.8 77.8,14.6 82.1,14.6 82.1,12.5 74.9,12.5 74.9,23.4 82.1,23.4 82.1,21.4 77.8,21.4 77.8,18.9 "
   id="polygon1706"
   style="fill:#ffffff;fill-opacity:1" /><polygon
   fill="#FFFFFF"
   points="65.1,23.4 68,23.4 68,12.5 65.1,12.5 "
   id="polygon1708"
   style="fill:#ffffff;fill-opacity:1" /><polygon
   fill="#FFFFFF"
   points="34.2,12.5 31.3,12.5 31.3,23.4 38.4,23.4 38.4,21.3 34.2,21.3 "
   id="polygon1710"
   style="fill:#ffffff;fill-opacity:1" /><polygon
   fill="#FFFFFF"
   points="57.1,14.7 59.8,14.7 59.8,12.5 51.5,12.5 51.5,14.7 54.2,14.7 54.2,23.4 57.1,23.4 "
   id="polygon1712"
   style="fill:#ffffff;fill-opacity:1" /><polygon
   fill="#FFFFFF"
   points="43.2,23.4 46.1,23.4 46.1,12.5 43.2,12.5 "
   id="polygon1714"
   style="fill:#ffffff;fill-opacity:1" /><path
   fill="#FFFFFF"
   d="M 3.5,12.5 H 0 v 11 H 2.9 V 21 h 0.9 c 2.9,0.1 4.6,-2.1 4.6,-4.3 0,-2.5 -1.6,-4.2 -4.9,-4.2 z m 0.2,6.3 H 2.9 v -4.2 h 0.8 c 1,0 1.9,1 1.9,2.1 0,1.1 -0.9,2.1 -1.9,2.1 z"
   id="path1716"
   style="fill:#ffffff;fill-opacity:1" />
</svg>
